<?xml version="1.0" standalone="no"?>
<!DOCTYPE svg PUBLIC "-//W3C//DTD SVG 20010904//EN"
 "http://www.w3.org/TR/2001/REC-SVG-20010904/DTD/svg10.dtd">
<svg version="1.0" xmlns="http://www.w3.org/2000/svg"
 width="1000.000000pt" height="1000.000000pt" viewBox="0 0 1000.000000 1000.000000"
 preserveAspectRatio="xMidYMid meet">
<metadata>
Created by potrace 1.14, written by Peter Selinger 2001-2017
</metadata>
<g transform="translate(0.000000,1000.000000) scale(0.100000,-0.100000)"
fill="#000000" stroke="none">
<path d="M4704 8518 c-3 -5 -9 -6 -14 -3 -5 3 -12 0 -16 -6 -4 -7 -3 -9 4 -5
6 3 14 -3 17 -15 4 -12 12 -18 21 -15 8 3 14 1 14 -4 0 -5 7 -6 17 -3 10 4 14
2 10 -4 -4 -6 3 -13 14 -16 14 -4 20 -11 16 -21 -3 -8 1 -17 10 -20 10 -4 12
-10 6 -19 -10 -13 -10 -54 0 -64 4 -3 2 -14 -4 -24 -7 -14 -6 -19 3 -19 8 0 9
-3 3 -8 -6 -4 -10 -20 -10 -37 0 -16 -3 -40 -7 -52 -4 -12 -3 -25 2 -28 7 -4
6 -13 0 -25 -7 -13 -7 -21 1 -26 8 -5 6 -10 -5 -16 -16 -9 -16 -11 1 -31 10
-11 12 -17 4 -12 -11 6 -13 4 -8 -8 3 -9 2 -19 -3 -22 -13 -8 -13 -25 1 -25 5
0 7 5 3 12 -5 7 -3 8 5 4 9 -6 8 -13 -6 -29 -12 -14 -13 -18 -3 -12 12 7 13 6
3 -6 -10 -12 -10 -18 0 -29 9 -10 9 -11 0 -6 -9 5 -13 -1 -13 -18 0 -39 -65
-96 -86 -76 -5 5 -17 -2 -27 -16 -10 -13 -13 -24 -7 -24 6 0 9 -4 6 -8 -3 -5
28 -8 69 -7 41 1 72 -3 69 -7 -3 -4 0 -8 5 -8 6 0 11 6 11 13 0 8 4 7 10 -3 5
-8 10 -10 10 -5 0 6 18 10 39 10 22 0 39 -2 39 -5 -1 -19 4 -23 12 -10 9 13
11 13 20 0 8 -13 10 -12 10 4 0 16 2 17 17 5 15 -13 15 -12 5 7 -6 12 -9 24
-5 27 3 4 -4 5 -15 2 -13 -2 -21 1 -19 8 1 7 -8 11 -20 11 -21 -1 -27 7 -24
28 0 4 -8 5 -18 3 -13 -2 -18 2 -16 13 1 9 -3 20 -9 24 -8 5 -7 8 2 8 8 0 10
5 5 13 -11 17 -10 41 2 49 6 5 5 8 -2 8 -9 0 -10 7 -4 23 5 14 5 30 0 40 -6 9
-6 17 -1 17 10 0 9 30 -1 47 -4 6 -4 14 1 17 4 2 7 26 6 53 -1 26 3 54 9 62 9
11 9 15 0 18 -7 3 -13 9 -13 14 0 6 4 8 8 5 12 -7 10 38 -2 46 -7 5 -7 8 2 8
6 0 12 5 12 11 0 5 -4 8 -9 4 -6 -3 -8 4 -5 17 3 13 6 28 6 35 1 6 7 9 15 6
14 -5 29 -49 25 -70 -2 -7 2 -13 8 -13 5 0 10 -5 10 -11 0 -5 -4 -7 -10 -4 -6
3 -7 -1 -4 -9 3 -9 10 -16 15 -16 5 0 9 -9 9 -19 0 -11 5 -23 11 -27 8 -4 7
-9 -2 -15 -11 -6 -10 -12 4 -27 9 -10 14 -22 10 -25 -3 -4 0 -7 8 -7 11 0 11
-2 -1 -10 -13 -8 -12 -10 3 -10 9 0 17 -5 17 -11 0 -5 -5 -7 -10 -4 -6 4 -1
-10 10 -30 11 -20 15 -33 8 -29 -7 5 -5 -5 6 -20 11 -18 13 -25 5 -21 -8 5 -5
-2 6 -15 13 -15 15 -21 5 -16 -9 5 -9 2 2 -7 13 -10 15 -16 6 -25 -9 -9 -9
-12 0 -12 7 0 12 -8 10 -17 -2 -11 2 -17 11 -15 12 3 12 1 0 -14 -12 -15 -12
-17 0 -9 11 6 13 3 9 -13 -4 -12 -2 -22 4 -22 5 0 6 -4 3 -10 -3 -5 -1 -10 6
-10 10 0 10 -3 1 -12 -7 -7 -12 -17 -12 -22 0 -6 5 -4 10 4 9 13 10 13 11 0 1
-8 1 -18 0 -22 0 -5 11 -8 25 -8 17 0 23 -4 19 -12 -4 -7 1 -4 9 6 9 11 16 16
16 10 0 -5 7 4 15 20 8 15 15 35 15 43 0 8 4 11 10 8 6 -3 7 1 4 9 -3 9 -1 16
6 16 6 0 8 5 5 10 -3 6 -1 10 4 10 6 0 10 3 10 8 -3 19 2 33 10 28 5 -4 8 2 6
11 -1 10 4 26 12 35 8 9 12 21 9 26 -3 6 2 13 11 16 15 6 15 8 3 16 -13 8 -12
10 3 10 10 0 15 5 12 10 -3 6 4 24 16 42 13 17 18 28 11 24 -9 -6 -10 -2 -1
18 7 14 16 23 20 20 5 -3 9 6 9 20 0 14 5 26 11 26 6 0 9 7 5 15 -3 8 -1 15 5
15 6 0 9 7 5 15 -3 8 3 23 13 32 10 10 17 26 16 35 -2 10 2 16 8 15 6 -1 11
10 11 25 -1 28 20 29 30 2 3 -9 1 -12 -4 -9 -14 9 -12 -8 3 -24 10 -11 10 -13
0 -7 -8 5 -13 1 -13 -9 0 -10 5 -13 13 -9 6 4 4 -1 -5 -12 -12 -13 -14 -24 -7
-36 6 -11 5 -19 -2 -24 -8 -4 -7 -9 2 -15 11 -7 11 -9 1 -9 -10 0 -10 -5 -2
-20 8 -15 8 -20 -2 -20 -9 0 -9 -3 2 -10 14 -9 6 -15 -15 -10 -5 1 -1 -7 8
-18 14 -15 15 -22 6 -28 -8 -5 -10 -3 -4 7 5 8 4 10 0 6 -12 -11 -15 -37 -4
-37 5 0 9 -5 9 -11 0 -5 -6 -7 -12 -3 -9 5 -9 2 1 -9 9 -12 10 -17 2 -17 -7 0
-9 -5 -6 -10 4 -6 1 -18 -7 -27 -9 -12 -9 -15 0 -9 7 4 12 2 12 -6 0 -8 -6
-20 -12 -27 -11 -11 -10 -13 5 -8 9 4 17 2 17 -3 0 -6 -4 -10 -9 -10 -5 0 -8
-8 -6 -17 1 -10 -2 -23 -7 -30 -5 -7 -5 -14 2 -18 7 -4 7 -12 0 -24 -5 -10 -6
-21 -3 -25 6 -5 -20 -10 -39 -7 -5 0 -8 -4 -8 -10 0 -6 -8 -8 -19 -4 -11 3
-22 1 -25 -4 -4 -6 -14 -7 -24 -4 -14 6 -15 4 -5 -9 7 -8 10 -18 6 -21 -3 -4
1 -7 11 -7 10 0 14 -5 10 -12 -5 -7 -3 -8 7 -2 19 12 51 16 45 5 -6 -9 37 -7
53 4 6 3 11 1 11 -6 0 -8 4 -8 15 1 10 9 15 9 15 1 0 -6 7 -11 16 -11 8 0 13
4 10 8 -3 5 1 9 9 9 8 0 12 -4 10 -8 -3 -4 2 -10 11 -13 8 -3 12 -2 9 4 -8 13
1 13 27 -1 16 -9 19 -8 13 2 -6 9 -3 10 11 5 10 -5 35 -8 54 -9 19 0 38 -5 42
-11 5 -7 8 -4 8 7 0 9 5 17 10 17 6 0 10 7 10 16 0 8 -4 12 -10 9 -5 -3 -10
-2 -10 4 0 5 -9 8 -20 6 -11 -2 -20 0 -20 4 0 4 -10 12 -22 18 -15 6 -22 20
-24 41 -2 20 1 30 8 26 7 -4 7 0 0 13 -7 12 -7 25 -1 36 7 12 6 17 -3 17 -9 0
-9 3 2 10 13 9 13 10 0 10 -12 1 -11 3 2 11 14 8 16 13 6 29 -9 14 -9 22 0 32
9 11 9 17 -1 27 -9 9 -9 14 3 21 12 8 12 10 1 10 -10 0 -11 3 -3 13 7 8 7 18
2 27 -5 9 -5 19 1 26 7 8 6 14 -1 19 -7 4 -8 11 -2 18 5 7 9 26 8 42 -2 17 1
42 5 58 5 16 4 25 -2 22 -5 -4 -9 -1 -9 4 0 6 5 11 10 11 7 0 7 7 -1 21 -8 15
-8 19 0 15 6 -4 11 -2 11 3 0 6 -5 11 -11 11 -6 0 -1 9 12 21 13 11 18 17 10
13 -9 -4 -12 -3 -8 3 4 6 16 13 27 16 12 3 18 1 14 -5 -4 -6 3 -5 15 1 12 7
25 9 30 7 5 -3 11 1 15 9 3 8 1 17 -5 20 -5 4 -7 10 -5 13 2 4 -18 6 -45 5
-34 -2 -49 1 -49 9 0 10 -2 10 -8 1 -9 -14 -44 -12 -54 2 -5 6 -8 5 -8 -4 0
-11 -3 -11 -17 0 -15 12 -16 12 -8 -1 8 -13 7 -13 -8 -1 -14 11 -17 11 -17 0
0 -11 -2 -11 -10 1 -9 13 -10 13 -10 0 0 -10 -3 -11 -8 -4 -8 13 -40 12 -61
-1 -10 -6 -12 -4 -6 5 5 8 3 11 -6 8 -8 -3 -13 -11 -11 -18 1 -7 -3 -18 -9
-26 -6 -8 -8 -14 -4 -14 4 0 0 -11 -9 -25 -9 -13 -18 -32 -20 -42 -10 -45 -19
-62 -30 -56 -6 3 -8 3 -4 -2 4 -4 2 -15 -5 -23 -10 -13 -9 -14 1 -8 11 7 11 4
1 -12 -7 -12 -18 -18 -24 -14 -5 3 -4 -2 4 -11 7 -9 10 -17 5 -17 -5 0 -17
-14 -26 -31 -10 -17 -12 -27 -5 -23 6 4 5 -1 -4 -12 -9 -10 -14 -25 -11 -33 3
-8 0 -11 -7 -7 -7 4 -11 -1 -11 -13 0 -11 -5 -23 -11 -26 -6 -4 -8 -12 -6 -19
3 -6 -2 -17 -9 -24 -12 -10 -14 -10 -14 3 0 9 -4 13 -10 10 -6 -4 -10 7 -10
25 0 18 -4 29 -10 25 -5 -3 -10 -1 -10 4 0 6 5 11 11 11 6 0 3 7 -5 16 -19 18
-21 38 -3 28 8 -5 8 -3 -2 9 -7 9 -17 14 -22 11 -5 -3 -6 2 -3 11 4 8 1 22 -5
29 -8 10 -9 16 -1 21 7 4 5 11 -5 21 -8 9 -13 20 -10 25 4 5 1 9 -6 9 -7 0 -9
10 -7 25 3 14 1 28 -5 32 -6 4 -7 1 -2 -7 5 -9 4 -11 -4 -6 -9 6 -9 11 -1 21
7 9 6 16 -5 25 -8 7 -12 16 -9 21 3 5 -1 9 -8 9 -9 0 -9 3 2 10 12 8 12 10 1
10 -8 0 -11 7 -8 20 3 13 1 18 -6 13 -6 -4 -8 0 -4 10 3 9 1 19 -5 23 -7 5 -8
2 -4 -7 4 -8 1 -6 -8 5 -8 10 -19 15 -25 12 -5 -4 -13 -1 -17 5 -4 8 -9 7 -15
-2 -8 -11 -13 -10 -26 6 -14 18 -15 19 -9 1 5 -16 4 -17 -9 -6 -8 7 -15 8 -15
3 0 -5 -9 -9 -19 -9 -16 0 -18 3 -8 15 10 12 9 13 -13 1 -18 -10 -25 -10 -28
-1 -3 8 -9 6 -18 -6 -12 -15 -13 -15 -8 -1 6 17 -10 19 -33 5 -8 -5 -13 -3
-13 4 0 8 -4 8 -15 -1 -8 -7 -15 -8 -15 -3 0 12 -29 13 -36 1z"/>
<path d="M4866 8362 c-3 -5 1 -9 9 -9 8 0 12 4 9 9 -3 4 -7 8 -9 8 -2 0 -6 -4
-9 -8z"/>
<path d="M3545 8300 c3 -5 -2 -10 -12 -10 -11 0 -25 -6 -32 -12 -11 -11 -13
-10 -7 2 5 9 2 9 -7 -2 -8 -10 -17 -14 -21 -11 -4 4 -3 -5 3 -19 8 -22 7 -29
-7 -37 -13 -8 -14 -10 -2 -11 10 0 11 -3 2 -12 -7 -7 -8 -17 -2 -29 7 -11 7
-20 0 -24 -5 -3 -10 -11 -10 -16 0 -6 6 -7 13 -3 8 5 8 2 -2 -9 -7 -9 -10 -17
-7 -17 4 0 2 -10 -5 -21 -6 -12 -7 -19 -2 -16 5 3 9 -10 9 -28 0 -22 -3 -30
-8 -22 -5 7 -7 -2 -4 -23 3 -21 0 -37 -7 -42 -9 -6 -8 -8 3 -8 13 0 13 -1 0
-10 -13 -9 -13 -10 0 -10 13 0 13 -1 0 -10 -11 -7 -11 -10 -2 -10 7 0 10 -5 7
-10 -4 -6 -12 -7 -18 -3 -7 3 -3 -4 8 -17 11 -13 14 -20 6 -15 -11 6 -13 2 -9
-19 3 -14 2 -26 -1 -26 -3 0 -6 -13 -7 -30 -1 -16 3 -27 8 -23 6 3 5 -5 -2
-17 -6 -12 -9 -24 -6 -27 3 -4 1 -12 -5 -19 -7 -8 -7 -14 1 -19 8 -5 8 -11 -1
-21 -9 -11 -8 -14 2 -14 8 0 6 -6 -7 -16 -10 -8 -14 -13 -7 -10 6 4 14 2 18
-4 3 -5 -1 -10 -10 -10 -9 0 -13 -5 -10 -10 4 -6 1 -18 -7 -27 -11 -14 -11
-16 2 -8 10 5 8 1 -4 -13 -10 -12 -23 -19 -29 -15 -5 3 -8 2 -5 -3 5 -8 -23
-43 -29 -36 -2 1 -3 -1 -2 -4 0 -4 -5 -11 -13 -15 -10 -7 -9 -9 5 -9 10 0 16
-4 13 -8 -3 -5 1 -9 9 -9 8 0 15 4 15 8 0 12 38 17 50 5 8 -8 9 -6 4 8 -6 16
-4 18 14 14 12 -4 22 -2 22 4 0 6 7 8 15 4 8 -3 15 -1 15 4 0 6 9 10 19 10 11
0 23 5 26 10 5 8 12 7 23 -2 12 -10 14 -10 8 0 -5 8 0 12 13 12 12 0 21 5 21
11 0 5 5 7 10 4 6 -3 10 1 10 10 0 9 4 13 10 10 6 -4 7 1 3 11 -4 11 -8 13
-11 6 -2 -7 -9 -9 -15 -5 -20 13 -41 12 -49 0 -6 -9 -11 -8 -18 3 -7 11 -10
12 -10 2 0 -10 -3 -10 -15 2 -8 8 -15 21 -15 30 0 8 -5 18 -10 21 -8 5 -7 11
1 21 9 11 8 14 -2 14 -10 0 -11 2 -2 8 14 9 14 51 0 70 -7 9 -5 11 9 6 10 -4
16 -4 12 1 -9 9 36 35 61 35 9 0 26 7 37 15 12 8 24 12 27 9 3 -3 15 0 27 6
15 8 20 8 16 1 -11 -17 27 0 41 18 8 11 12 12 13 3 0 -6 6 -11 13 -10 6 2 11
-3 9 -10 -1 -8 2 -11 7 -8 5 3 14 -1 21 -9 7 -8 9 -15 5 -15 -5 0 3 -10 17
-22 14 -13 31 -33 37 -46 7 -12 16 -20 22 -17 5 4 9 3 9 0 0 -10 -28 -35 -38
-35 -6 0 -12 -5 -14 -10 -2 -6 -13 -12 -25 -12 -14 -2 -19 -7 -15 -17 4 -9 1
-12 -7 -7 -10 6 -10 3 0 -12 10 -15 17 -18 26 -11 7 6 16 8 22 5 5 -3 11 -1
13 4 3 9 27 16 71 19 5 1 6 5 3 9 -2 4 10 8 27 7 20 0 39 8 50 20 l17 20 -7
-20 c-5 -18 -3 -17 22 5 25 22 27 23 22 5 -6 -18 -5 -18 5 -4 7 9 21 15 31 13
10 -1 14 2 10 8 -4 7 2 9 15 6 12 -4 22 -2 22 4 0 6 8 8 18 6 14 -4 18 1 20
22 1 17 -4 30 -13 34 -9 3 -13 2 -10 -4 9 -14 -8 -12 -24 3 -11 9 -12 9 -7 0
11 -21 -45 -11 -58 9 -6 10 -17 18 -24 18 -7 0 -10 5 -7 10 3 6 1 10 -4 10 -6
0 -11 7 -11 16 0 8 -3 13 -7 11 -5 -3 -14 1 -21 9 -7 8 -10 14 -7 14 3 0 -3
10 -14 22 -11 11 -18 25 -15 30 3 5 2 8 -3 7 -23 -4 -35 2 -29 16 3 9 0 15 -9
15 -8 0 -15 3 -15 8 0 4 -16 25 -35 47 -19 22 -35 47 -35 55 0 12 -2 12 -9 2
-6 -10 -10 -8 -16 10 -4 12 -7 27 -6 31 1 5 -2 7 -6 4 -10 -5 -43 29 -35 37 3
3 -2 6 -12 6 -9 0 -14 5 -11 10 3 6 1 10 -4 10 -6 0 -11 7 -11 16 0 8 -4 13
-9 9 -5 -3 -12 3 -16 14 -3 11 -12 22 -20 25 -8 3 -15 10 -15 17 0 14 -60 73
-78 77 -8 1 -11 -2 -7 -8z m5 -256 c0 -8 5 -14 10 -14 6 0 10 -10 10 -22 0
-19 2 -20 10 -8 6 9 10 10 10 3 0 -6 15 -26 33 -44 17 -18 25 -29 17 -24 -10
5 -8 1 4 -13 10 -12 23 -19 27 -16 5 3 6 -3 2 -12 -4 -12 -3 -15 5 -10 18 11
14 -10 -5 -25 -14 -12 -16 -12 -9 1 6 12 4 11 -6 -1 -7 -9 -19 -14 -25 -12 -7
3 -13 -1 -13 -9 0 -10 -3 -9 -10 2 -7 11 -10 11 -10 2 0 -7 -4 -11 -9 -7 -5 3
-12 1 -16 -4 -3 -5 -15 -8 -26 -6 -14 3 -19 0 -16 -8 3 -8 -4 -13 -19 -13 -18
0 -21 3 -12 13 6 7 6 13 2 13 -5 0 -10 13 -10 30 -1 16 2 28 6 25 3 -2 7 2 7
10 0 8 -5 15 -11 15 -6 0 -4 5 4 10 12 8 12 10 1 10 -9 0 -10 4 -4 13 6 6 8
25 6 40 -2 18 0 26 7 22 7 -4 7 2 0 21 -13 33 4 61 26 43 8 -6 14 -18 14 -25z"/>
<path d="M3516 8062 c-3 -5 1 -9 9 -9 8 0 12 4 9 9 -3 4 -7 8 -9 8 -2 0 -6 -4
-9 -8z"/>
<path d="M2466 7814 c-3 -8 -10 -13 -15 -10 -5 3 -11 -1 -15 -9 -3 -8 -13 -15
-21 -15 -10 0 -13 -5 -9 -12 5 -8 2 -9 -9 -5 -11 4 -17 1 -17 -9 0 -8 -8 -18
-17 -21 -10 -4 -27 -15 -37 -25 -11 -10 -26 -18 -33 -18 -14 0 -14 -1 -18 -38
-2 -18 0 -20 12 -11 11 10 12 8 6 -7 -6 -16 -5 -17 9 -4 9 8 14 18 12 21 -2 4
6 6 19 5 14 -1 21 4 19 14 -2 12 1 11 11 -2 8 -10 18 -14 22 -10 5 4 5 -1 2
-10 -4 -10 -2 -18 2 -18 5 0 8 -8 6 -17 -1 -10 3 -24 9 -32 9 -12 8 -13 -4 -6
-13 7 -13 6 -2 -7 9 -12 10 -18 2 -23 -8 -5 -8 -11 1 -21 6 -8 9 -23 6 -34 -3
-11 -1 -20 4 -20 5 0 9 -5 9 -11 0 -5 -5 -7 -11 -3 -8 4 -8 0 0 -15 7 -11 8
-21 4 -21 -4 0 -1 -5 7 -10 12 -8 12 -10 -5 -10 -16 0 -17 -2 -6 -9 16 -10 22
-49 9 -57 -4 -3 -5 -10 -2 -16 4 -7 2 -8 -5 -4 -6 4 -8 12 -5 18 4 6 -2 6 -15
-1 -17 -9 -21 -9 -21 3 0 9 -9 13 -25 11 -14 -1 -28 2 -32 8 -3 6 -1 7 5 3 7
-4 12 -5 12 -2 0 3 -10 10 -21 17 -16 8 -20 8 -14 0 3 -7 -8 -3 -26 8 -18 11
-36 18 -41 15 -4 -3 -8 0 -8 6 0 7 -6 10 -14 7 -8 -3 -17 1 -20 9 -3 8 -12 14
-21 14 -8 0 -15 6 -15 13 0 8 -4 7 -10 -3 -7 -11 -10 -11 -10 -2 0 7 -10 17
-22 22 -13 5 -17 9 -10 9 6 1 12 7 12 14 0 7 9 19 19 27 11 7 17 18 14 24 -4
6 1 5 11 -3 15 -12 17 -12 14 0 -2 8 -10 20 -18 27 -11 10 -11 12 -1 6 9 -5
12 -3 7 4 -5 9 -13 9 -27 2 -11 -6 -17 -15 -14 -21 4 -5 3 -9 -2 -8 -4 1 -17
1 -28 0 -15 -1 -17 -3 -7 -10 10 -6 8 -10 -10 -16 -12 -4 -26 -7 -30 -6 -5 1
-8 -6 -8 -15 0 -8 -4 -13 -9 -10 -5 4 -19 -6 -31 -21 -12 -16 -19 -22 -15 -15
3 6 1 12 -4 12 -6 0 -11 -7 -11 -16 0 -8 -4 -12 -10 -9 -5 3 -10 1 -10 -4 0
-6 -7 -11 -16 -11 -8 0 -12 -4 -9 -10 3 -5 -1 -10 -9 -10 -9 0 -16 -5 -16 -12
0 -6 -3 -8 -7 -5 -3 4 -12 -2 -20 -13 -8 -11 -23 -20 -35 -20 -14 0 -18 -5
-14 -15 3 -8 2 -15 -3 -15 -4 0 -8 -7 -8 -15 0 -10 4 -12 13 -4 8 7 13 6 16
-2 2 -7 16 -4 40 10 23 12 40 16 44 10 4 -7 10 -6 19 1 10 8 15 8 21 -1 5 -8
3 -9 -6 -4 -8 5 -11 4 -7 -3 4 -5 16 -8 27 -5 11 3 20 0 20 -6 0 -6 11 -11 25
-11 14 0 25 -5 25 -11 0 -7 9 -9 21 -6 12 3 22 0 26 -9 3 -8 14 -14 24 -14 10
0 19 -6 19 -12 0 -9 4 -8 10 2 6 10 10 11 10 3 0 -7 9 -13 21 -13 11 0 18 -4
15 -9 -3 -5 1 -12 10 -15 8 -3 12 -2 9 4 -3 6 1 7 9 4 9 -3 13 -11 9 -18 -3
-6 -3 -8 2 -4 4 4 15 2 23 -5 13 -10 14 -9 8 1 -4 7 15 0 42 -15 32 -17 46
-31 39 -35 -8 -5 -5 -8 6 -8 11 0 21 -9 24 -20 3 -11 11 -20 19 -20 8 0 11 -6
7 -17 -4 -11 -3 -14 5 -9 7 4 12 1 12 -9 0 -8 10 -20 23 -25 12 -5 16 -9 8 -9
-11 -1 -10 -5 5 -17 10 -8 13 -12 5 -8 -10 5 -12 3 -5 -7 14 -23 10 -43 -11
-59 -11 -8 -23 -14 -27 -13 -4 2 -4 -5 -1 -14 4 -10 2 -14 -4 -10 -5 3 -10 0
-10 -6 0 -7 11 -18 23 -24 13 -6 22 -8 21 -4 -1 3 1 7 5 9 4 1 18 12 32 25 34
31 49 43 74 56 13 7 20 16 17 21 -3 6 0 7 8 4 9 -3 21 4 29 15 8 12 18 18 21
14 4 -3 7 -1 7 5 0 7 7 12 15 12 9 0 18 7 21 15 4 8 10 12 15 9 5 -3 9 -1 9 4
0 5 17 21 37 35 25 18 32 27 20 27 -9 0 -17 4 -17 8 0 4 -9 8 -20 9 -11 1 -18
-2 -15 -7 3 -4 -2 -11 -11 -14 -23 -9 -26 -8 -18 7 4 6 -2 3 -14 -7 -17 -14
-22 -16 -22 -5 0 11 -2 11 -10 -1 -8 -12 -10 -11 -10 8 0 12 -5 21 -12 20 -6
-2 -18 10 -26 25 -7 16 -20 31 -28 34 -8 3 -14 11 -14 19 0 8 -4 14 -9 14 -5
0 -12 11 -15 25 -4 16 -11 23 -18 19 -7 -4 -8 -3 -4 5 4 6 2 18 -4 26 -10 12
-10 15 1 15 11 0 11 2 -1 10 -8 5 -11 12 -7 16 4 4 1 14 -6 22 -10 13 -9 15 8
8 16 -6 18 -5 8 5 -7 7 -13 28 -13 47 0 24 -3 31 -12 26 -10 -6 -10 -4 -2 7
12 15 15 49 4 49 -4 0 -5 12 -2 26 4 21 2 25 -9 19 -8 -5 -5 1 5 13 11 12 15
22 9 22 -11 0 -11 36 0 46 4 4 7 12 7 18 0 6 -5 4 -11 -4 -8 -12 -9 -10 -7 10
2 14 8 28 13 32 6 5 5 8 -4 8 -11 0 -11 3 -1 15 6 8 9 19 5 25 -3 5 -2 10 4
10 6 0 7 7 4 17 -4 11 -3 14 5 9 7 -4 12 -2 12 4 0 7 7 9 16 6 14 -5 15 -4 4
9 -7 8 -9 15 -6 15 4 0 1 7 -8 15 -18 19 -22 19 -30 -1z"/>
<path d="M7411 7740 c-1 -9 -11 -17 -23 -17 -13 -1 -24 -7 -26 -13 -2 -5 -8
-8 -13 -5 -5 4 -6 -2 -2 -12 3 -10 3 -15 -2 -11 -13 12 -51 -41 -47 -64 1 -5
-3 -8 -9 -8 -5 0 -7 -4 -4 -10 3 -5 2 -10 -4 -10 -11 0 -9 -19 3 -39 6 -9 5
-12 -1 -8 -7 4 -10 -5 -9 -23 0 -17 5 -30 10 -30 4 0 3 -7 -4 -15 -10 -12 -9
-16 4 -21 10 -4 15 -12 13 -19 -3 -6 4 -17 14 -23 10 -7 19 -19 19 -27 0 -8 5
-15 12 -15 6 0 8 -3 5 -7 -4 -3 2 -13 14 -21 12 -8 18 -20 15 -29 -4 -11 -2
-13 9 -9 13 5 20 -5 16 -26 0 -5 6 -8 16 -8 9 0 14 -3 10 -6 -3 -4 1 -13 9
-21 8 -8 12 -19 9 -24 -4 -5 -1 -9 5 -9 7 0 10 -6 7 -14 -3 -8 -1 -17 6 -20 9
-3 8 -8 -3 -15 -13 -9 -12 -11 3 -11 10 0 15 -5 12 -10 -4 -6 -11 -8 -16 -5
-5 3 -6 -1 -3 -9 3 -8 -1 -25 -10 -38 -9 -12 -16 -18 -16 -13 0 6 -7 1 -15 -9
-8 -11 -15 -16 -15 -12 0 5 -6 4 -12 0 -12 -9 -28 -10 -53 -4 -5 1 -14 3 -20
4 -26 5 -44 19 -38 30 4 6 -1 5 -11 -3 -9 -8 -16 -10 -14 -5 1 5 -12 25 -30
44 -18 19 -32 42 -32 50 0 9 -5 21 -12 28 -8 8 -8 15 3 28 8 10 9 15 2 11 -8
-5 -11 14 -11 73 0 44 3 78 7 75 13 -7 5 31 -9 46 -12 13 -16 12 -37 -9 -12
-12 -23 -30 -23 -39 0 -9 -6 -13 -15 -9 -8 3 -14 2 -14 -2 4 -22 -2 -32 -13
-26 -9 5 -9 2 1 -9 12 -15 11 -17 -3 -17 -9 0 -15 -3 -14 -7 3 -13 -43 -83
-54 -83 -6 0 1 -9 15 -21 21 -16 31 -18 47 -9 13 7 20 7 20 0 0 -5 7 -10 16
-10 8 0 12 -5 9 -11 -4 -6 1 -19 11 -28 11 -10 25 -28 33 -39 8 -12 18 -19 22
-16 4 2 11 -1 15 -7 4 -8 3 -9 -4 -5 -7 4 -12 4 -12 -1 1 -13 80 -64 91 -58 5
4 8 1 7 -7 -2 -7 3 -12 10 -10 6 1 12 -2 12 -6 0 -5 12 -14 26 -20 14 -7 23
-8 19 -2 -9 14 26 1 48 -19 16 -13 19 -13 27 -1 6 9 10 10 10 3 0 -7 9 -10 20
-7 11 2 29 6 40 8 14 4 18 1 14 -7 -4 -7 1 -5 12 4 10 9 24 15 30 12 6 -2 22
8 35 21 13 14 30 26 37 26 7 0 10 5 7 10 -3 6 -1 10 5 10 6 0 8 5 5 10 -3 6 1
10 9 10 9 0 16 8 16 18 0 10 6 24 13 31 6 8 7 11 1 8 -6 -3 -11 0 -11 8 0 8 4
12 8 9 4 -2 10 0 14 6 3 5 1 10 -4 10 -6 0 -11 5 -11 11 0 6 6 7 13 2 6 -4 4
6 -7 21 -10 16 -13 25 -7 22 6 -4 11 0 11 8 0 9 -4 16 -9 16 -5 0 -12 7 -15
16 -4 9 -2 13 5 8 7 -4 7 1 -1 15 -6 12 -18 25 -26 28 -7 3 -12 9 -9 13 3 5
-7 21 -22 36 -16 14 -21 24 -13 20 8 -4 5 1 -7 10 -13 9 -23 23 -23 31 0 7 -7
16 -15 19 -8 4 -12 10 -9 15 3 5 1 9 -4 9 -5 0 -15 14 -22 30 -7 17 -17 30
-22 30 -6 0 -4 8 3 17 8 10 9 14 2 10 -6 -4 -14 -3 -18 3 -3 5 -2 10 4 10 5 0
8 8 7 18 -4 21 22 62 39 62 7 0 16 8 19 17 6 15 8 15 16 3 8 -12 10 -11 10 5
0 17 2 17 10 5 5 -8 10 -11 10 -7 0 4 9 3 19 -3 14 -7 21 -6 24 3 3 6 6 3 6
-8 1 -17 3 -17 11 -5 8 13 10 12 10 -3 0 -10 3 -16 8 -14 9 5 46 -34 50 -53 2
-8 8 -18 14 -21 6 -4 7 -12 3 -19 -4 -7 -2 -16 6 -21 12 -7 12 -9 0 -9 -11 0
-10 -4 5 -16 13 -11 14 -14 3 -11 -16 5 -20 -18 -5 -41 4 -6 3 -12 -3 -12 -5
0 -8 -11 -5 -25 2 -14 0 -25 -6 -25 -5 0 -10 -7 -10 -16 0 -8 4 -13 8 -10 5 3
9 -1 9 -9 0 -8 -4 -12 -9 -9 -4 3 -8 1 -8 -4 0 -16 30 -23 52 -11 13 7 18 17
15 30 -3 10 -1 17 4 13 5 -3 9 0 9 6 0 6 4 8 10 5 6 -4 7 1 3 11 -4 12 -3 15
5 10 11 -6 17 12 13 37 0 4 2 6 6 5 5 -2 9 1 10 6 1 5 7 12 15 17 7 5 13 14
13 21 1 7 6 12 12 11 6 -1 10 5 8 15 -2 9 -4 20 -4 24 -1 4 -8 4 -18 1 -10 -4
-14 -2 -9 5 3 6 1 14 -5 18 -8 4 -9 3 -5 -4 4 -7 1 -12 -8 -12 -17 0 -66 45
-66 60 0 6 -9 15 -20 22 -11 7 -20 18 -20 25 0 7 -9 13 -21 13 -11 0 -18 4
-14 9 5 10 -29 34 -50 36 -5 1 -9 6 -8 13 2 7 -4 9 -14 5 -12 -5 -14 -3 -8 7
6 9 4 11 -4 6 -7 -5 -21 0 -32 10 -19 17 -20 17 -14 -2 6 -17 5 -17 -7 -3 -13
16 -102 20 -125 6 -6 -4 -14 -1 -16 5 -4 9 -6 8 -6 -2z"/>
<path d="M1287 6768 c-9 -5 -17 -15 -17 -23 0 -7 -12 -23 -27 -35 -16 -12 -21
-18 -13 -14 13 7 13 5 1 -9 -7 -9 -18 -14 -24 -10 -6 3 -7 1 -3 -5 4 -7 2 -12
-4 -12 -6 0 -8 -4 -5 -10 3 -5 1 -10 -4 -10 -6 0 -11 -4 -11 -10 0 -17 -43
-60 -53 -53 -6 3 -7 1 -4 -4 4 -6 -2 -18 -13 -28 -11 -10 -20 -23 -20 -28 0
-5 -8 -15 -17 -22 -9 -7 -18 -24 -19 -39 -1 -22 1 -24 14 -13 13 9 14 9 8 0
-12 -21 13 -15 31 7 10 11 23 20 30 20 6 0 15 5 19 12 5 7 3 8 -6 3 -8 -5 -11
-4 -6 3 4 6 14 8 24 5 37 -15 61 -30 55 -36 -3 -4 1 -7 11 -7 9 0 14 -5 11
-10 -4 -6 -3 -9 2 -8 14 4 54 -23 48 -33 -4 -5 3 -9 14 -9 12 0 21 -5 21 -11
0 -5 5 -7 10 -4 6 3 10 -1 10 -10 0 -11 5 -15 16 -11 8 3 12 2 9 -4 -3 -6 6
-15 20 -20 14 -5 23 -15 20 -20 -4 -6 -3 -10 2 -9 15 4 43 -13 37 -22 -3 -5 1
-6 9 -3 7 2 22 -7 33 -21 10 -14 24 -25 30 -25 6 0 19 -10 28 -22 9 -13 14
-16 11 -8 -4 8 2 5 13 -7 11 -13 25 -23 30 -23 5 0 13 -7 16 -16 3 -8 9 -13
14 -10 4 2 9 -6 10 -19 1 -13 -3 -27 -8 -30 -6 -4 -8 -11 -5 -16 4 -5 1 -9 -5
-9 -6 0 -8 -4 -5 -10 3 -5 2 -10 -3 -10 -6 0 -12 -7 -15 -14 -4 -10 -1 -13 7
-10 8 3 17 0 21 -5 3 -6 11 -9 16 -5 5 3 6 10 3 16 -5 7 -1 9 9 5 11 -4 14 -2
10 9 -3 7 0 14 6 14 6 0 11 7 11 15 0 8 5 15 10 15 6 0 15 10 20 23 5 12 9 16
9 7 1 -8 11 4 22 28 12 23 32 51 45 61 13 10 20 21 17 25 -3 3 0 6 7 6 7 0 11
3 8 6 -3 3 5 17 19 32 37 40 43 55 27 70 -10 10 -14 10 -14 1 0 -7 -3 -9 -7
-6 -3 4 -12 -1 -20 -11 -8 -9 -11 -11 -7 -3 5 9 3 12 -4 7 -7 -4 -12 -13 -12
-21 0 -9 -8 -12 -21 -10 -15 3 -19 0 -15 -10 8 -21 1 -19 -26 8 -13 13 -31 23
-40 21 -11 -1 -15 3 -11 12 4 12 -11 20 -20 12 -1 -2 -16 12 -33 29 -17 18
-34 30 -37 26 -4 -3 -9 2 -13 11 -3 9 -12 16 -20 16 -8 0 -14 5 -14 10 0 6 -7
10 -16 10 -8 0 -12 5 -9 10 3 6 -1 10 -9 10 -9 0 -16 5 -16 11 0 5 -4 7 -10 4
-5 -3 -10 1 -10 9 0 9 -3 15 -7 15 -20 -3 -34 2 -28 11 3 6 -1 10 -9 10 -9 0
-16 5 -16 10 0 6 -7 10 -16 10 -8 0 -12 5 -9 10 3 6 0 10 -8 10 -8 0 -20 7
-27 15 -7 8 -16 12 -21 9 -5 -3 -6 3 -2 12 4 11 3 15 -4 11 -15 -9 -45 21 -37
35 4 6 2 8 -3 5 -6 -4 -13 0 -17 8 -3 8 0 15 6 15 6 0 8 3 5 7 -4 3 -2 12 4
20 6 7 8 13 3 13 -5 0 -3 4 5 9 34 22 13 59 -22 39z"/>
<path d="M8707 6663 c3 -7 -5 -10 -21 -9 -14 2 -26 -1 -26 -6 0 -6 -11 -7 -26
-4 -20 5 -25 4 -21 -7 4 -10 -3 -12 -24 -9 -20 3 -29 0 -29 -9 0 -12 -2 -12
-9 -1 -7 11 -11 10 -24 -2 -11 -12 -18 -13 -23 -5 -5 9 -11 6 -21 -6 -9 -14
-13 -15 -13 -4 -1 10 -5 9 -15 -5 -10 -13 -15 -15 -15 -6 0 9 -5 8 -16 -6 -15
-19 -16 -19 -9 0 5 18 4 19 -12 4 -10 -8 -24 -13 -32 -10 -8 3 -11 0 -7 -7 5
-7 1 -9 -8 -5 -10 4 -16 1 -16 -7 0 -11 -3 -11 -10 1 -5 8 -10 10 -10 4 0 -6
-6 -11 -12 -11 -23 -1 -43 -8 -50 -18 -4 -6 -8 -2 -8 8 0 10 -5 15 -10 12 -6
-4 -7 -11 -4 -17 5 -7 1 -9 -9 -5 -9 3 -18 -1 -21 -10 -5 -12 -9 -13 -20 -4
-10 9 -16 9 -21 1 -5 -8 -10 -8 -20 0 -10 8 -15 8 -21 -1 -4 -8 -3 -9 4 -5 7
4 12 2 12 -5 0 -6 -8 -9 -20 -6 -11 3 -22 1 -25 -4 -3 -4 -12 -6 -20 -2 -9 3
-15 -1 -15 -8 0 -11 -3 -11 -10 1 -7 11 -10 11 -10 2 0 -10 -5 -10 -20 -2 -11
6 -20 8 -20 4 0 -4 -8 2 -18 12 -26 29 -66 61 -58 46 4 -7 1 -15 -7 -18 -16
-6 -17 -28 -2 -41 4 -4 5 -1 0 7 -4 8 1 6 12 -5 11 -11 19 -23 17 -27 -3 -4 0
-9 6 -13 6 -4 8 -11 5 -16 -6 -8 9 -13 28 -10 5 1 6 -3 2 -9 -3 -5 -1 -10 6
-10 7 0 9 -3 6 -6 -4 -4 3 -15 15 -25 11 -11 17 -19 12 -19 -5 0 -1 -5 9 -11
9 -5 17 -17 17 -24 0 -8 7 -15 15 -15 9 0 12 -6 9 -15 -4 -8 -2 -15 4 -15 5 0
13 7 16 16 3 9 12 14 19 11 8 -3 14 1 14 9 0 8 -3 12 -5 9 -10 -9 -41 27 -35
41 3 8 0 14 -7 14 -9 0 -10 3 -1 13 6 8 8 17 5 20 -4 3 5 9 20 13 14 3 26 11
26 16 0 6 11 8 25 6 13 -3 22 -2 20 2 -6 10 24 22 35 15 5 -3 11 -1 15 5 9 14
45 -6 45 -26 0 -8 5 -12 10 -9 6 3 10 0 10 -7 0 -8 9 -20 20 -28 14 -10 16
-16 7 -22 -9 -6 -8 -8 4 -8 9 0 22 -12 30 -27 18 -35 35 -54 42 -46 4 3 5 -4
2 -16 -2 -11 1 -21 7 -21 6 0 8 -3 4 -7 -4 -5 -13 -8 -19 -8 -7 0 -12 -7 -12
-15 0 -8 -8 -22 -17 -31 -10 -9 -15 -19 -11 -22 3 -4 -1 -9 -10 -13 -9 -3 -14
-11 -11 -18 3 -7 -3 -19 -12 -27 -13 -11 -18 -11 -21 -1 -3 6 -11 12 -20 12
-18 0 -43 24 -43 42 0 11 -2 11 -9 0 -4 -8 -12 -13 -17 -13 -5 1 -10 -8 -10
-19 -1 -11 3 -17 7 -14 5 3 9 -1 9 -9 0 -8 10 -22 23 -31 12 -9 15 -14 7 -10
-13 7 -13 5 -1 -9 7 -9 17 -14 22 -11 5 3 9 -4 9 -15 0 -11 9 -25 20 -31 11
-6 20 -15 20 -21 0 -16 27 -39 35 -31 5 4 5 1 1 -6 -4 -6 0 -19 8 -28 9 -9 14
-20 11 -25 -4 -5 1 -6 9 -3 12 4 16 0 16 -16 0 -11 5 -18 10 -15 6 3 10 -1 10
-10 0 -9 5 -13 10 -10 6 3 10 1 10 -4 0 -6 5 -11 11 -11 5 0 7 5 4 10 -3 6 -2
10 4 10 5 0 9 9 8 20 -1 11 -8 20 -17 20 -13 0 -13 1 0 10 12 8 12 10 1 10
-10 0 -11 3 -2 14 9 11 9 16 0 22 -8 5 -9 3 -4 -6 6 -9 4 -11 -4 -5 -9 5 -6
14 11 33 13 14 17 22 11 18 -7 -4 -13 -4 -13 -1 0 4 6 13 13 20 30 34 35 43
30 49 -4 3 -1 6 6 6 7 0 9 5 6 10 -3 6 1 13 9 16 9 3 13 10 10 15 -3 5 0 9 6
9 7 0 10 7 6 15 -3 9 0 15 9 15 8 0 15 9 15 20 0 11 5 20 10 20 6 0 10 7 10
15 0 8 5 15 11 15 5 0 7 5 4 10 -3 6 -2 10 3 10 10 0 38 60 34 72 -1 4 5 5 13
2 10 -4 13 0 10 16 -3 15 0 20 8 17 8 -3 14 4 14 15 1 11 9 28 17 37 9 10 13
21 10 24 -4 4 1 9 10 13 9 3 13 10 10 15 -3 5 2 12 10 15 9 3 14 9 11 14 -2 4
7 22 20 40 13 18 22 37 20 41 -3 4 0 11 6 15 8 5 10 2 5 -7 -4 -8 0 -5 9 6 15
19 14 21 -6 38 -12 9 -18 17 -14 17 5 0 -2 9 -14 19 -13 11 -21 24 -18 28 3 4
-5 8 -18 8 -13 0 -21 -5 -18 -12z m-141 -103 c0 -11 -9 -29 -18 -40 -10 -11
-15 -20 -12 -20 3 0 -2 -7 -10 -16 -9 -8 -13 -20 -10 -26 4 -7 2 -8 -4 -4 -7
4 -12 2 -12 -3 0 -20 -3 -26 -19 -39 -13 -11 -13 -12 -1 -7 10 4 9 2 -2 -8
-10 -8 -15 -17 -11 -20 3 -4 1 -7 -6 -7 -7 0 -11 -7 -8 -14 4 -11 1 -13 -10
-9 -11 4 -14 2 -9 -5 10 -17 2 -15 -22 7 -12 10 -19 21 -15 25 3 3 -2 6 -12 6
-15 0 -16 2 -4 18 7 9 10 14 5 10 -9 -8 -87 73 -80 83 2 4 15 6 29 4 19 -2 23
1 15 10 -7 8 -5 12 5 12 8 0 15 -5 15 -11 0 -5 7 -1 16 10 8 10 12 12 8 4 -7
-13 -5 -13 9 -2 9 8 21 11 27 7 5 -3 10 -2 10 4 0 6 6 8 13 5 8 -3 20 2 27 11
10 12 16 13 26 4 11 -9 14 -8 14 1 0 8 3 11 6 7 4 -3 13 0 21 8 19 19 20 19
19 -5z"/>
<path d="M2585 6321 c6 -11 4 -13 -8 -8 -9 3 -19 2 -22 -3 -4 -6 0 -10 7 -10
10 0 10 -2 0 -9 -8 -4 -14 -12 -14 -16 0 -4 6 -12 14 -16 10 -7 10 -9 1 -9 -7
0 -13 -5 -13 -11 0 -5 6 -7 13 -3 8 5 8 2 -2 -9 -12 -15 -11 -17 3 -17 9 0 16
-4 16 -9 0 -6 9 -8 20 -6 11 2 22 0 25 -6 4 -5 12 -9 18 -9 7 0 6 4 -3 10 -9
6 -10 10 -3 10 6 0 15 -4 18 -10 9 -15 27 -12 20 3 -4 6 0 4 8 -5 8 -10 24
-18 36 -18 12 0 20 -4 17 -8 -2 -4 5 -9 16 -9 11 -1 27 -10 35 -20 8 -10 12
-12 8 -3 -4 8 7 1 24 -17 17 -18 31 -39 31 -47 0 -8 5 -16 11 -18 5 -2 11 -10
12 -18 2 -8 7 -21 11 -29 6 -9 5 -12 -2 -7 -12 7 -10 -20 3 -31 4 -5 5 -1 0 7
-5 8 -4 12 0 7 14 -12 17 -49 4 -41 -7 4 -6 -2 2 -17 13 -26 13 -27 -4 -48 -9
-12 -9 -13 1 -7 11 7 17 -7 12 -29 -7 -28 -4 -308 3 -312 5 -3 0 -14 -10 -26
-10 -11 -12 -17 -5 -13 8 5 12 0 12 -14 0 -14 -4 -19 -12 -14 -10 6 -10 4 -2
-7 6 -8 10 -31 8 -51 -1 -21 2 -36 6 -33 5 3 6 -4 3 -15 -3 -11 -10 -17 -17
-13 -8 5 -8 3 0 -8 6 -8 10 -31 8 -51 -1 -21 2 -36 6 -33 5 3 6 -4 3 -15 -3
-11 -9 -17 -14 -14 -5 3 -6 -2 -3 -10 3 -9 11 -13 18 -9 7 5 7 2 -1 -8 -7 -8
-9 -26 -6 -39 5 -18 3 -21 -8 -15 -11 7 -12 6 -3 -6 6 -8 10 -31 8 -51 -1 -21
2 -36 6 -33 5 3 6 -4 3 -15 -3 -11 -10 -17 -17 -13 -8 5 -8 3 0 -8 6 -8 10
-31 8 -51 -1 -21 2 -36 6 -33 5 3 6 -4 3 -15 -3 -11 -9 -18 -12 -15 -4 2 -8
-2 -8 -10 0 -8 4 -15 9 -15 4 0 8 -9 8 -21 0 -13 -4 -18 -12 -13 -7 5 -8 3 -3
-6 14 -22 15 -81 1 -73 -6 4 -3 -6 8 -21 16 -26 17 -28 2 -23 -9 4 -15 3 -11
-2 3 -5 -1 -12 -7 -14 -10 -4 -10 -6 0 -6 6 -1 12 -7 12 -15 0 -8 -6 -17 -12
-19 -10 -4 -9 -6 1 -6 11 -1 11 -4 0 -18 -12 -15 -12 -16 1 -8 13 8 13 7 1 -8
-11 -14 -11 -17 0 -17 12 0 12 -2 0 -9 -7 -5 -11 -15 -8 -22 9 -27 -66 -139
-93 -139 -6 0 -8 -4 -5 -10 4 -6 -1 -7 -11 -3 -12 4 -15 3 -10 -5 5 -8 2 -10
-8 -6 -9 4 -16 1 -16 -6 0 -7 -7 -10 -15 -6 -8 3 -15 0 -15 -6 0 -7 -4 -7 -14
1 -10 8 -16 8 -25 -3 -7 -8 -23 -13 -36 -11 -14 1 -25 -3 -25 -9 0 -6 -5 -4
-10 4 -5 8 -10 10 -10 4 0 -7 -8 -11 -17 -10 -13 1 -17 -8 -18 -39 0 -22 -4
-46 -9 -54 -6 -9 -5 -12 2 -7 5 3 12 1 14 -5 4 -12 78 -19 78 -8 0 4 16 3 35
-1 24 -5 35 -4 35 4 0 6 5 4 10 -4 7 -11 10 -11 10 -2 0 7 5 10 11 6 18 -11
89 -10 89 1 0 6 5 3 10 -5 7 -11 10 -11 10 -2 0 7 5 10 11 6 18 -11 89 -10 89
1 0 6 5 3 10 -5 7 -11 10 -11 10 -2 0 7 5 10 11 6 18 -11 89 -10 89 1 0 6 5 3
10 -5 7 -11 10 -11 10 -2 0 7 5 10 11 6 18 -11 89 -10 93 1 3 7 5 7 5 0 1 -10
194 -10 241 1 22 5 23 6 7 16 -18 9 -18 10 0 25 10 8 12 12 6 8 -9 -4 -13 1
-13 15 0 38 -17 57 -49 55 -17 -1 -32 4 -35 11 -3 7 -14 10 -25 7 -12 -3 -21
-1 -21 6 0 6 -3 10 -7 10 -27 -4 -53 2 -47 12 4 8 0 9 -15 4 -12 -3 -21 -2
-21 4 0 5 -9 13 -20 16 -11 4 -18 11 -15 16 3 5 -1 6 -9 3 -9 -3 -16 -1 -16 6
0 6 -7 18 -15 27 -8 8 -12 19 -9 25 4 7 2 8 -4 4 -11 -6 -16 6 -13 27 0 4 -4
7 -9 7 -7 0 -7 7 0 20 8 16 8 22 -3 26 -8 3 -13 16 -11 30 1 13 -2 24 -8 24
-6 0 -5 6 2 15 7 8 8 15 3 15 -5 0 -9 17 -8 38 0 20 -3 42 -8 49 -4 6 -3 14 3
18 7 4 7 13 -1 27 -9 16 -8 19 2 13 8 -5 10 -4 5 3 -12 19 -13 82 -2 82 6 0 4
5 -4 10 -11 7 -11 10 -2 10 10 0 10 5 2 20 -8 15 -8 20 2 20 8 0 9 3 3 8 -5 4
-10 26 -10 50 0 23 5 42 10 42 6 0 3 5 -5 10 -11 7 -11 10 -2 10 10 0 10 5 2
20 -8 15 -8 20 2 20 8 0 9 3 3 8 -5 4 -10 26 -10 50 0 23 5 42 10 42 6 0 3 5
-5 10 -11 7 -11 10 -2 10 10 0 10 5 2 20 -8 15 -8 20 2 20 8 0 9 3 3 8 -5 4
-10 26 -10 50 0 23 5 42 10 42 6 0 3 5 -5 10 -11 7 -11 10 -2 10 9 0 10 5 2
19 -7 14 -6 21 3 24 8 4 9 6 0 6 -8 1 -9 10 -3 30 6 21 5 31 -3 35 -8 3 -7 5
2 5 11 1 11 4 1 16 -7 9 -8 15 -2 15 6 0 7 13 2 35 -5 24 -4 35 4 35 6 0 4 5
-4 10 -11 7 -11 10 -2 10 10 0 10 5 2 20 -7 14 -7 20 0 20 5 0 10 5 10 11 0 5
-4 8 -9 4 -6 -3 -6 6 -1 24 6 21 5 31 -3 35 -8 3 -7 5 2 5 11 1 11 4 1 16 -7
8 -8 15 -3 15 11 0 9 42 -2 59 -3 6 -2 11 3 11 5 0 9 6 9 14 0 8 -7 12 -16 9
-12 -3 -12 -2 2 7 13 9 15 15 7 31 -8 13 -8 19 0 19 7 0 8 6 0 19 -7 14 -6 21
3 24 9 4 9 6 0 6 -7 1 -13 6 -13 12 0 5 5 7 11 3 8 -4 8 0 0 15 -10 17 -9 21
4 21 10 0 13 5 9 12 -4 7 -3 8 5 4 6 -4 9 -12 6 -17 -4 -5 -1 -9 6 -9 8 0 7
-5 -2 -17 -10 -11 -10 -14 -1 -9 8 5 12 1 12 -13 0 -11 5 -23 11 -26 6 -4 8
-13 5 -21 -3 -8 -1 -14 5 -14 6 0 9 -7 5 -15 -3 -8 -1 -15 5 -15 6 0 8 -4 4
-9 -3 -5 -1 -12 5 -16 6 -4 8 -11 5 -16 -4 -5 -1 -9 5 -9 6 0 8 -4 5 -10 -3
-5 -2 -10 4 -10 5 0 8 -8 7 -17 -2 -10 3 -24 11 -31 7 -8 11 -17 8 -22 -3 -5
1 -11 7 -13 10 -4 10 -6 0 -6 -10 -1 -10 -5 2 -17 9 -8 14 -20 11 -25 -4 -5
-1 -9 6 -9 7 0 9 -3 6 -7 -4 -3 0 -17 8 -29 8 -13 16 -39 17 -58 2 -19 6 -32
9 -30 3 2 11 -8 18 -23 11 -25 11 -25 -6 -12 -17 13 -17 13 0 -7 9 -11 17 -28
17 -38 0 -10 5 -14 11 -10 8 5 10 -1 7 -19 -3 -16 0 -28 8 -31 8 -3 14 -10 14
-16 0 -6 -6 -8 -12 -5 -7 4 -5 0 5 -8 10 -8 19 -26 19 -39 1 -12 7 -30 13 -38
23 -30 29 -44 14 -35 -8 5 -5 -1 5 -13 12 -14 14 -22 7 -22 -7 0 -9 -5 -6 -10
4 -6 11 -7 17 -4 7 4 8 2 4 -5 -4 -6 -2 -18 4 -26 6 -8 9 -19 5 -25 -3 -5 -1
-10 5 -10 6 0 8 -4 5 -10 -3 -5 -1 -10 5 -10 6 0 9 -3 7 -8 -3 -4 3 -24 13
-45 10 -20 13 -34 7 -30 -7 4 -6 -1 2 -10 7 -9 10 -17 5 -17 -5 0 -3 -4 4 -9
8 -5 15 -20 15 -35 1 -14 8 -28 15 -31 7 -3 13 -13 12 -22 -3 -26 11 -63 23
-63 6 0 8 -3 4 -6 -7 -8 13 -67 27 -76 8 -5 7 -8 -1 -8 -7 0 -13 -4 -13 -10 0
-5 7 -10 16 -10 9 0 14 -6 11 -12 -2 -7 3 -22 12 -32 13 -16 13 -18 1 -11 -9
5 -7 -1 5 -15 11 -13 14 -20 8 -16 -10 5 -10 2 -3 -16 6 -13 13 -31 16 -40 4
-10 9 -18 13 -18 4 0 7 -10 8 -22 1 -11 8 -25 15 -29 10 -6 10 -9 1 -9 -8 0
-5 -13 9 -37 12 -20 17 -33 10 -29 -7 4 -12 2 -12 -3 0 -6 6 -11 14 -11 9 0
13 -7 11 -20 -2 -11 0 -20 4 -20 8 0 23 -55 18 -64 -1 -2 6 -13 16 -24 11 -12
16 -26 12 -32 -4 -6 1 -18 11 -26 11 -9 13 -13 7 -9 -8 4 -11 1 -7 -9 5 -12
11 -13 25 -5 14 7 19 6 19 -3 0 -10 3 -9 9 1 7 11 13 12 23 3 8 -7 19 -7 28
-2 9 6 20 4 29 -3 11 -9 15 -9 18 1 3 6 9 12 14 12 6 0 7 -6 3 -12 -5 -9 -2
-9 9 1 9 7 17 22 17 33 0 10 4 17 9 14 5 -3 11 12 15 35 4 28 10 38 19 33 7
-5 5 1 -3 11 -9 11 -10 16 -2 11 11 -6 14 0 11 21 0 3 7 10 16 15 13 8 14 13
4 24 -9 11 -9 14 1 14 7 0 10 7 6 16 -4 10 -2 13 6 8 8 -5 9 -2 5 10 -4 10 -3
15 3 11 6 -3 10 3 10 15 0 14 4 19 13 14 8 -5 8 -2 -2 9 -9 11 -10 17 -2 17 6
0 11 7 11 15 0 8 6 15 13 15 9 0 9 2 -1 8 -10 7 -7 15 10 37 13 17 16 26 8 21
-8 -4 -7 -1 2 7 10 8 19 26 20 41 1 14 6 26 11 26 4 0 6 4 2 9 -3 5 -1 12 5
16 6 4 8 11 5 16 -4 5 -1 9 4 9 6 0 10 3 10 8 -3 19 2 33 10 28 5 -4 7 3 4 15
-3 12 0 24 6 28 7 4 13 21 15 36 2 16 8 31 14 33 6 2 8 10 5 18 -3 8 0 14 6
14 7 0 11 8 9 18 -2 9 2 16 8 15 6 -1 10 8 9 20 -1 12 5 28 14 35 12 11 13 12
1 6 -13 -7 -13 -5 -2 9 8 9 11 20 8 26 -3 5 -1 11 6 13 6 2 13 15 15 28 2 13
11 33 21 44 12 14 13 17 2 11 -10 -6 -9 -2 3 12 14 16 15 22 5 26 -10 4 -10 6
0 6 6 1 12 8 12 16 0 8 5 15 10 15 6 0 10 6 9 13 -3 24 1 38 10 33 5 -4 7 4 3
16 -4 16 -2 19 9 13 11 -7 11 -5 -1 10 -8 10 -10 16 -5 13 6 -4 17 2 24 14 7
11 8 17 2 13 -6 -3 -11 -1 -11 4 0 6 5 11 11 11 6 0 9 6 6 14 -7 17 16 39 29
28 4 -4 3 0 -4 10 -9 11 -10 18 -2 23 5 3 10 15 10 26 0 11 4 18 9 14 6 -3 8
4 6 15 -3 14 1 20 13 20 15 0 15 2 2 10 -11 7 -11 10 -2 10 7 0 10 5 7 10 -3
6 -1 10 5 10 6 0 9 4 6 9 -3 4 3 27 14 49 11 23 20 48 20 57 0 9 4 14 9 11 5
-3 9 0 8 7 -1 33 4 48 14 41 8 -4 9 0 4 15 -4 13 -2 21 5 21 6 0 9 4 5 9 -3 5
0 13 6 16 5 4 8 13 5 21 -3 8 -1 14 5 14 6 0 9 7 6 15 -4 8 -1 17 5 21 7 5 8
2 3 -7 -5 -8 -4 -11 1 -6 5 5 9 18 9 30 1 12 7 21 13 19 10 -2 10 3 1 19 -8
16 -8 20 1 14 8 -5 11 0 10 16 -3 38 -1 42 15 29 13 -11 14 -10 8 6 -6 17 -5
17 11 5 11 -9 13 -17 6 -21 -6 -4 -8 -14 -4 -23 3 -10 1 -24 -5 -31 -9 -11 -9
-16 0 -21 8 -6 7 -10 -2 -16 -11 -7 -9 -9 5 -9 20 0 20 0 0 -16 -10 -8 -13
-13 -6 -9 6 3 12 1 12 -4 0 -6 -4 -11 -9 -11 -8 0 -7 -48 3 -57 2 -3 1 -16 -5
-30 -6 -16 -6 -22 1 -18 6 3 10 1 10 -4 0 -6 -4 -11 -10 -11 -5 0 -10 -5 -10
-11 0 -5 4 -8 9 -4 5 3 12 1 16 -5 3 -5 1 -10 -4 -10 -6 0 -11 -10 -11 -22 -1
-74 2 -103 11 -114 7 -8 7 -14 -1 -19 -14 -9 -13 -48 3 -64 10 -11 10 -13 0
-7 -15 8 -18 -20 -3 -29 5 -3 7 -12 4 -20 -4 -8 -9 -13 -14 -10 -4 2 -5 -7 -2
-20 2 -14 8 -28 13 -30 4 -3 6 -12 3 -20 -4 -8 -9 -13 -13 -10 -4 2 -8 -2 -8
-10 0 -8 4 -12 8 -9 8 5 3 -61 -5 -75 -3 -4 -1 -13 4 -21 4 -7 4 -24 0 -36 -6
-14 -5 -26 1 -29 5 -4 6 -12 2 -18 -11 -18 -12 -38 -2 -31 5 3 9 0 9 -5 0 -6
-4 -11 -10 -11 -5 0 -10 -5 -10 -11 0 -5 4 -8 9 -4 5 3 12 1 16 -5 3 -5 -1
-10 -10 -10 -10 0 -13 -5 -9 -12 5 -7 7 -25 6 -41 -2 -16 2 -35 8 -42 8 -9 8
-15 0 -20 -13 -8 -13 -52 0 -60 5 -3 7 -12 4 -20 -4 -8 -10 -13 -15 -10 -8 6
-4 -34 5 -42 3 -3 1 -16 -4 -29 -6 -15 -6 -26 1 -30 8 -4 7 -9 -2 -15 -12 -7
-12 -9 0 -9 11 0 11 -3 1 -15 -11 -13 -10 -15 6 -9 18 5 18 5 2 -9 -19 -15
-25 -32 -8 -22 6 3 7 -1 4 -9 -4 -10 -1 -16 7 -16 9 0 10 -3 3 -8 -20 -14 -24
-41 -6 -51 15 -9 15 -10 -3 -11 -12 -1 -15 -4 -7 -7 10 -4 10 -8 0 -21 -8 -9
-8 -13 -2 -9 7 4 14 0 17 -8 4 -9 1 -12 -7 -9 -7 3 -13 -2 -13 -10 0 -8 4 -13
8 -11 4 3 9 -2 12 -10 4 -9 1 -12 -8 -9 -10 4 -12 0 -8 -17 4 -14 2 -20 -4
-16 -7 4 -9 0 -6 -11 4 -18 -54 -80 -71 -74 -4 1 -15 -5 -23 -15 -8 -10 -12
-12 -8 -5 3 6 1 12 -4 12 -6 0 -11 -5 -11 -11 0 -5 -5 -7 -10 -4 -6 4 -18 1
-27 -7 -14 -11 -16 -11 -8 2 7 12 6 13 -6 4 -8 -6 -33 -10 -56 -9 -24 1 -43
-2 -43 -6 0 -5 -7 -5 -17 -2 -11 4 -14 3 -9 -5 4 -7 2 -12 -3 -12 -6 0 -11 5
-11 12 0 6 -3 9 -6 6 -3 -4 -1 -16 6 -27 8 -16 8 -21 -2 -21 -9 0 -9 -3 2 -10
8 -5 10 -10 3 -10 -6 0 -10 -8 -8 -17 2 -10 4 -21 4 -24 2 -12 71 -16 71 -4 0
5 5 3 10 -5 7 -11 10 -11 10 -2 0 7 5 10 11 6 18 -11 89 -10 89 1 0 6 5 3 10
-5 7 -11 10 -11 10 -2 0 7 5 10 11 6 18 -11 89 -10 89 1 0 6 5 3 10 -5 7 -11
10 -11 10 -2 0 7 5 10 11 6 18 -11 89 -10 89 1 0 6 5 3 10 -5 7 -11 10 -11 10
-2 0 7 5 10 11 6 18 -11 89 -10 89 1 0 6 5 3 10 -5 7 -11 10 -11 10 -2 0 7 5
10 11 6 18 -11 89 -10 89 1 0 6 5 3 10 -5 7 -11 10 -11 10 -2 0 7 5 10 11 6
18 -11 89 -10 89 1 0 7 3 7 8 0 9 -13 72 -13 72 0 0 5 5 3 10 -5 7 -11 10 -11
10 -2 0 7 5 10 11 6 16 -9 109 -11 109 -1 0 5 5 5 11 1 20 -12 89 -10 89 3 0
6 4 15 10 18 6 4 7 -1 3 -12 -3 -10 -3 -15 2 -11 4 4 8 25 9 47 2 30 -1 38
-10 30 -8 -7 -10 -3 -7 14 3 16 -1 26 -12 30 -11 5 -14 3 -9 -6 5 -9 4 -9 -7
1 -15 14 -33 16 -25 3 4 -5 -3 -7 -14 -4 -11 3 -17 9 -15 13 3 5 -7 7 -22 5
-16 -1 -39 4 -52 12 -13 8 -20 10 -16 3 8 -13 -30 7 -53 28 -7 7 -19 9 -25 5
-7 -4 -6 1 2 10 12 15 11 17 -2 17 -9 0 -19 5 -23 12 -5 7 -3 8 6 3 9 -6 9 -2
-2 14 -8 12 -14 35 -12 52 3 22 0 28 -9 23 -9 -6 -9 -5 0 7 10 12 10 18 0 29
-9 10 -9 11 1 6 7 -5 12 -1 12 9 0 10 -5 13 -12 9 -9 -5 -9 -2 1 9 7 9 10 17
6 17 -4 0 -2 7 5 15 11 13 10 14 -2 10 -16 -7 -17 21 -2 59 6 15 4 17 -6 11
-10 -6 -11 -4 -4 6 12 19 16 51 6 45 -5 -3 -9 1 -9 9 0 8 4 12 9 9 10 -6 4 78
-7 96 -5 9 -4 11 3 6 7 -4 12 -1 12 9 0 9 -4 13 -10 10 -6 -4 -7 2 -1 18 7 17
6 29 -2 37 -9 10 -9 11 1 6 7 -5 12 -1 12 9 0 9 -4 13 -10 10 -6 -4 -7 2 -1
18 7 17 6 29 -2 37 -9 10 -9 11 1 6 7 -5 12 -1 12 9 0 9 -4 13 -10 10 -6 -4
-7 2 -1 18 7 17 6 29 -2 37 -9 10 -9 11 1 6 7 -5 12 -1 12 9 0 9 -4 13 -10 10
-6 -4 -7 2 -1 18 7 17 6 29 -2 37 -9 10 -9 11 1 6 7 -5 12 -1 12 9 0 9 -4 13
-10 10 -6 -4 -7 2 -1 18 7 17 6 29 -2 37 -9 10 -9 11 1 6 7 -5 12 -1 12 9 0 9
-4 13 -10 10 -6 -4 -7 2 -1 18 7 17 6 29 -2 37 -9 10 -9 11 1 6 7 -5 12 -1 12
9 0 9 -4 13 -10 10 -6 -4 -7 2 -1 18 7 17 6 29 -2 37 -9 10 -9 11 1 6 7 -5 12
-1 12 9 0 9 -4 13 -10 10 -6 -4 -7 2 -1 18 7 17 6 29 -2 37 -9 10 -9 11 1 6 7
-5 12 -1 12 9 0 9 -4 13 -10 10 -6 -4 -7 2 -1 18 7 17 6 29 -2 37 -9 10 -9 11
1 6 7 -5 12 -1 12 9 0 9 -4 13 -10 10 -6 -4 -7 2 -1 18 7 17 6 29 -2 37 -9 10
-9 11 1 6 7 -5 12 -1 12 9 0 9 -4 13 -10 10 -6 -4 -7 2 -1 18 7 17 6 29 -2 37
-9 10 -9 11 1 6 7 -5 12 -1 12 9 0 9 -4 13 -10 10 -6 -4 -7 2 -1 18 7 17 6 29
-2 37 -9 10 -9 11 1 6 7 -5 12 -1 12 9 0 9 -4 13 -10 10 -6 -4 -7 2 -1 18 7
17 6 29 -2 37 -9 10 -9 11 1 6 7 -5 12 -1 12 9 0 9 -4 13 -10 10 -7 -4 -7 2 0
19 6 17 6 27 -2 32 -7 5 -5 12 7 21 11 7 14 13 9 13 -6 0 -11 7 -11 15 0 8 4
12 9 9 4 -3 8 2 8 11 0 9 4 13 10 10 6 -3 7 1 4 9 -4 9 1 18 10 22 9 3 16 14
16 23 0 13 2 13 9 2 6 -10 10 -10 16 -1 4 6 14 9 22 6 9 -4 11 -2 7 5 -4 7 -1
10 7 7 7 -2 29 1 48 8 25 8 42 9 55 2 13 -7 16 -7 11 2 -4 7 -1 11 6 10 8 -1
24 1 36 5 17 5 21 11 14 23 -6 11 -4 20 7 30 10 7 11 10 3 6 -11 -5 -13 0 -9
24 3 22 1 29 -9 25 -7 -3 -13 1 -13 8 0 11 -3 11 -10 -1 -7 -11 -10 -11 -10
-2 0 7 -5 10 -10 7 -6 -4 -8 -12 -4 -18 3 -7 -1 -4 -9 6 -11 14 -16 15 -20 5
-4 -10 -8 -10 -16 2 -10 13 -11 13 -11 0 0 -13 -1 -13 -10 0 -5 8 -10 10 -10
4 0 -12 -29 -12 -49 1 -10 5 -12 4 -7 -3 4 -7 2 -12 -3 -12 -6 0 -11 6 -11 13
0 9 -3 8 -9 -2 -5 -7 -11 -9 -14 -4 -7 11 -37 11 -55 -1 -7 -4 -12 -2 -12 6 0
9 -3 9 -10 -2 -9 -13 -11 -13 -20 0 -7 11 -10 11 -10 2 0 -8 -5 -10 -12 -6
-18 12 -48 12 -55 1 -3 -5 -9 -3 -14 4 -7 12 -9 12 -9 0 0 -11 -3 -11 -17 0
-15 12 -16 12 -9 -5 7 -19 6 -19 -13 -2 -15 13 -20 14 -24 4 -4 -10 -8 -10
-16 2 -10 13 -11 13 -11 0 0 -13 -1 -13 -10 0 -8 12 -10 12 -10 1 0 -10 -3
-11 -14 -2 -11 9 -15 9 -19 -1 -4 -10 -8 -10 -16 2 -10 13 -11 13 -11 0 0 -13
-1 -13 -10 0 -5 8 -10 10 -10 5 0 -6 -9 -11 -20 -11 -11 0 -20 5 -20 11 0 5
-5 3 -10 -5 -9 -13 -11 -13 -20 0 -8 12 -10 13 -10 1 0 -8 -3 -11 -7 -8 -3 4
-12 2 -20 -5 -11 -9 -12 -7 -6 8 6 17 5 17 -10 5 -14 -11 -17 -11 -17 0 0 12
-2 12 -9 0 -6 -9 -10 -10 -16 -2 -5 9 -10 9 -20 1 -10 -8 -14 -7 -18 2 -4 10
-6 10 -6 -1 -1 -11 -4 -11 -18 0 -10 8 -14 9 -10 2 5 -8 0 -11 -13 -10 -11 1
-20 6 -20 11 0 5 -7 1 -16 -10 -8 -10 -13 -14 -10 -8 3 6 -1 11 -7 11 -8 0
-12 -12 -11 -29 1 -15 -2 -31 -7 -34 -6 -3 -5 -12 3 -22 11 -13 11 -14 -1 -7
-11 6 -13 4 -8 -8 4 -10 2 -17 -5 -17 -7 0 -6 -5 2 -15 10 -12 9 -16 -2 -20
-12 -5 -17 -18 -20 -62 -1 -7 -6 -13 -11 -13 -5 0 -7 -7 -3 -15 3 -8 1 -15 -4
-15 -6 0 -9 -3 -9 -7 4 -25 -2 -43 -12 -37 -7 4 -10 1 -7 -7 3 -8 -4 -29 -14
-47 -10 -19 -13 -30 -7 -27 8 6 8 2 0 -13 -6 -11 -16 -23 -23 -25 -10 -4 -9
-6 1 -6 11 -1 10 -6 -5 -23 -10 -12 -13 -18 -6 -14 7 4 4 -8 -7 -27 -11 -19
-17 -38 -14 -41 4 -3 2 -6 -3 -6 -5 0 -10 -9 -11 -20 -1 -11 -8 -27 -16 -35
-9 -8 -13 -24 -10 -35 3 -12 0 -20 -7 -20 -7 0 -10 -7 -7 -15 4 -8 1 -17 -5
-21 -7 -5 -8 -2 -3 7 5 8 4 11 -1 6 -5 -5 -10 -17 -10 -28 -3 -37 -4 -40 -16
-33 -8 5 -7 0 2 -11 9 -11 10 -16 3 -11 -8 4 -13 1 -13 -8 0 -28 -1 -31 -21
-52 -12 -13 -16 -24 -11 -28 6 -3 8 -15 5 -26 -3 -11 -9 -17 -14 -14 -8 5 -14
-17 -10 -38 0 -5 -4 -8 -10 -8 -5 0 -7 -4 -4 -10 3 -5 2 -10 -2 -10 -5 0 -9
-10 -10 -22 -1 -11 -6 -24 -10 -27 -4 -3 -10 -17 -12 -31 -1 -14 -8 -28 -13
-31 -6 -4 -5 -9 3 -12 10 -4 9 -6 -3 -6 -12 -1 -15 -6 -11 -18 4 -11 3 -14 -5
-9 -8 5 -10 1 -5 -10 3 -10 0 -22 -8 -28 -13 -10 -18 -25 -21 -63 -1 -7 -6
-13 -11 -13 -5 0 -6 -7 -3 -16 4 -12 2 -15 -9 -10 -13 5 -14 2 -4 -15 8 -15 8
-19 0 -15 -7 5 -11 -1 -11 -14 0 -12 -4 -19 -9 -16 -10 7 -9 -13 1 -29 4 -6
-2 -11 -13 -12 -10 -1 -24 8 -30 19 -9 16 -8 19 3 12 7 -4 5 2 -5 13 -10 12
-19 35 -19 51 -1 23 -5 29 -17 24 -13 -5 -14 -3 -4 9 9 11 8 18 -2 33 -8 10
-11 25 -8 34 5 11 2 14 -9 9 -12 -4 -14 -1 -10 15 3 11 -1 24 -9 29 -12 7 -12
9 0 9 11 0 10 4 -4 13 -10 8 -15 19 -11 25 3 6 -2 15 -11 21 -14 8 -15 10 -3
11 10 0 11 3 4 8 -6 4 -17 18 -24 31 -10 19 -10 22 2 15 11 -7 11 -5 0 9 -8 9
-11 21 -7 27 4 6 3 10 -2 9 -19 -3 -27 2 -15 10 11 6 10 11 -3 24 -9 9 -13 21
-10 27 3 5 1 10 -5 10 -6 0 -8 5 -5 10 3 6 0 10 -7 10 -9 0 -9 3 2 10 13 8 12
10 -3 10 -10 0 -15 5 -12 10 4 6 1 17 -5 25 -6 8 -9 19 -5 25 3 5 -1 13 -10
16 -13 5 -13 9 -3 22 10 12 10 14 1 8 -13 -7 -17 4 -14 33 2 7 -2 10 -8 6 -10
-6 -15 14 -14 52 1 7 -2 11 -6 9 -4 -3 -13 15 -20 40 -7 24 -16 44 -20 44 -4
0 -8 9 -9 20 -4 44 -6 50 -14 50 -5 0 -6 5 -3 10 3 6 1 10 -5 10 -6 0 -8 5 -5
11 4 5 -1 19 -11 30 -13 15 -14 19 -3 19 10 1 9 4 -4 14 -14 11 -15 15 -5 19
8 3 6 6 -6 6 -12 1 -16 6 -13 16 4 8 2 17 -3 20 -4 3 -11 23 -15 45 -4 22 -12
43 -17 46 -7 5 -8 2 -3 -6 6 -9 4 -11 -4 -5 -9 5 -10 10 -2 18 8 8 6 16 -6 29
-10 11 -11 18 -5 18 7 0 12 4 12 10 0 5 -7 7 -15 4 -11 -5 -15 1 -15 21 0 16
-4 24 -11 19 -7 -4 -7 1 1 16 8 15 8 20 1 16 -6 -4 -11 0 -11 8 0 9 -6 16 -12
16 -10 0 -10 2 0 9 11 7 10 9 -3 15 -10 3 -13 11 -9 18 5 9 3 9 -9 -1 -14 -11
-17 -11 -17 0 0 12 -2 12 -9 0 -6 -9 -10 -10 -16 -2 -5 9 -10 9 -21 0 -11 -9
-14 -8 -14 2 0 12 -2 12 -9 0 -6 -9 -11 -10 -15 -3 -4 6 -13 9 -21 6 -8 -4
-13 -9 -10 -13 2 -4 -2 -8 -9 -8 -9 0 -12 7 -8 16 5 14 3 14 -10 3 -13 -10
-17 -10 -21 0 -4 10 -6 10 -6 -1 -1 -11 -4 -11 -18 0 -11 10 -14 10 -9 2 4 -7
3 -13 -3 -13 -5 0 -13 5 -16 11 -5 7 -14 4 -26 -7 -19 -17 -20 -17 -12 2 7 18
6 18 -20 1 -25 -16 -26 -16 -20 0 6 16 5 16 -10 4 -14 -11 -17 -11 -17 0 0 12
-2 12 -9 0 -6 -9 -10 -10 -16 -2 -5 9 -10 9 -21 0 -11 -9 -14 -8 -14 2 0 12
-2 12 -9 0 -7 -11 -9 -11 -14 0 -5 12 -6 12 -6 0 -1 -11 -4 -11 -18 0 -14 12
-16 12 -11 -2 4 -9 1 -16 -7 -16 -8 0 -11 7 -7 16 5 14 3 14 -10 3 -13 -10
-17 -10 -21 0 -4 10 -6 10 -6 -1 -1 -11 -4 -11 -18 0 -11 10 -14 10 -9 2 4 -7
3 -13 -3 -13 -5 0 -13 5 -16 11 -5 7 -14 4 -26 -7 -19 -17 -20 -17 -12 2 7 18
6 18 -20 1 -25 -16 -26 -16 -20 0 6 16 5 16 -10 4 -14 -11 -17 -11 -17 0 0 12
-2 12 -9 0 -6 -9 -10 -10 -16 -2 -5 9 -10 9 -21 0 -11 -9 -14 -8 -14 2 0 12
-2 12 -9 0 -7 -11 -9 -11 -14 0 -5 12 -6 12 -6 0 -1 -11 -4 -11 -18 0 -14 12
-16 12 -11 -2 4 -9 1 -16 -7 -16 -8 0 -11 7 -7 16 5 14 3 14 -11 2 -14 -11
-17 -11 -17 0 0 12 -2 12 -9 0 -6 -9 -10 -10 -16 -2 -5 9 -10 9 -20 1 -10 -8
-14 -7 -18 2 -4 10 -6 10 -6 -1 -1 -11 -4 -11 -18 0 -14 12 -16 12 -8 0z
m2065 -641 c0 -5 -5 -10 -11 -10 -5 0 -7 5 -4 10 3 6 8 10 11 10 2 0 4 -4 4
-10z m790 -1374 c0 -3 -4 -8 -10 -11 -5 -3 -10 -1 -10 4 0 6 5 11 10 11 6 0
10 -2 10 -4z"/>
<path d="M690 5629 c0 -6 -7 -9 -15 -5 -8 3 -15 1 -15 -4 0 -5 -8 -7 -17 -3
-10 3 -15 3 -11 -1 10 -12 -15 -34 -31 -28 -10 4 -13 1 -8 -12 4 -9 3 -15 -2
-12 -9 6 -26 -22 -22 -37 0 -4 -6 -10 -14 -13 -8 -3 -12 -10 -9 -15 3 -5 0 -9
-5 -9 -6 0 -11 -9 -11 -20 0 -11 -5 -20 -11 -20 -6 0 -9 -9 -6 -20 3 -11 1
-18 -3 -15 -5 3 -11 -13 -15 -35 -4 -22 -10 -40 -15 -40 -4 0 -11 -16 -14 -35
-5 -22 -11 -33 -18 -29 -7 5 -8 2 -4 -5 9 -14 -12 -73 -23 -66 -4 2 -8 -2 -8
-10 0 -8 4 -12 9 -9 4 3 5 -2 2 -10 -3 -9 -10 -16 -15 -16 -5 0 -9 -5 -9 -11
0 -5 6 -7 13 -3 6 4 3 -2 -7 -14 -11 -12 -15 -22 -11 -22 5 0 0 -7 -11 -16
-10 -8 -13 -13 -6 -9 19 10 14 -13 -5 -24 -14 -8 -15 -10 -3 -11 13 0 13 -1 0
-10 -12 -7 -12 -10 -1 -10 7 0 11 -6 8 -14 -4 -10 0 -12 14 -9 12 4 18 11 15
20 -4 8 -1 11 5 8 6 -4 13 2 16 14 3 11 9 18 14 15 5 -3 9 2 9 10 0 17 41 18
52 1 5 -6 8 -6 8 3 0 9 7 8 25 -4 14 -9 25 -12 25 -8 0 5 4 4 8 -3 4 -7 23
-13 41 -15 18 -1 35 -7 38 -12 4 -5 1 -6 -7 -1 -8 5 -11 4 -7 -3 4 -5 15 -9
25 -7 9 1 25 -4 34 -12 9 -8 22 -12 27 -8 6 3 11 0 11 -7 0 -10 2 -10 8 -1 6
9 12 7 22 -7 10 -14 17 -17 27 -8 9 7 13 7 13 -1 0 -6 9 -11 21 -11 15 0 19
-4 15 -16 -5 -14 -4 -15 8 -5 9 8 16 8 20 2 4 -5 15 -8 26 -6 13 3 18 0 14 -7
-5 -7 0 -9 14 -6 13 4 20 1 19 -5 -1 -6 3 -11 8 -12 6 0 16 -4 24 -9 10 -7 12
-6 6 4 -5 8 3 6 22 -5 34 -20 38 -33 30 -101 -3 -29 0 -31 24 -30 15 0 25 4
22 9 -2 4 1 15 9 24 11 14 11 16 -2 8 -12 -7 -13 -6 -3 7 7 8 9 19 5 23 -4 5
1 5 11 2 13 -5 16 -3 10 6 -11 17 -13 38 -3 32 6 -4 13 8 24 45 1 3 5 11 10
19 6 10 5 12 -2 7 -16 -10 -15 2 2 19 7 8 16 12 19 9 3 -3 3 4 0 16 -3 12 -1
25 6 29 6 4 12 19 13 34 1 15 6 27 10 27 4 0 8 14 8 30 0 23 -4 30 -20 30 -10
0 -24 -9 -30 -20 -6 -11 -8 -20 -5 -20 3 0 0 -6 -7 -14 -7 -8 -16 -12 -20 -9
-5 2 -8 0 -8 -5 0 -5 -7 -9 -15 -9 -8 0 -15 3 -15 6 0 4 -12 8 -27 9 -15 1
-29 6 -32 11 -3 4 -14 7 -23 6 -11 -2 -15 2 -11 11 3 10 0 12 -10 8 -8 -3 -30
3 -49 12 -18 10 -41 17 -51 15 -14 -2 -18 3 -15 16 2 10 10 17 16 16 7 -2 12
1 12 6 0 6 9 8 20 6 11 -2 18 0 15 6 -4 5 5 9 19 9 14 0 26 4 26 9 0 4 15 7
34 6 23 -1 32 3 29 11 -3 9 2 11 18 7 15 -4 20 -3 15 5 -4 7 -3 12 3 12 5 0
12 -6 14 -12 4 -9 6 -10 6 -1 1 7 11 10 28 7 21 -4 24 -2 15 8 -9 11 -3 13 28
11 24 -1 43 4 51 13 7 8 20 12 30 9 11 -4 19 -2 19 5 0 6 5 8 12 4 6 -4 8 -3
5 3 -3 5 0 20 7 34 7 13 10 31 8 38 -3 8 0 11 7 7 7 -5 11 3 11 24 0 21 4 29
12 24 8 -5 9 -2 5 9 -3 9 -2 19 3 22 15 9 12 27 -2 20 -7 -3 -3 2 10 11 12 9
22 22 22 28 0 6 -5 4 -10 -4 -6 -9 -10 -10 -10 -3 0 7 7 16 16 21 14 8 14 11
-2 27 -12 11 -19 14 -22 6 -2 -6 -8 -9 -13 -6 -4 3 -11 -5 -15 -19 -3 -14 -15
-28 -25 -31 -11 -4 -17 -10 -14 -15 3 -4 -3 -7 -12 -6 -10 2 -24 -4 -31 -13
-10 -12 -12 -12 -6 -1 7 13 5 13 -9 1 -9 -7 -17 -10 -17 -5 0 5 -5 1 -11 -9
-8 -14 -14 -16 -25 -6 -11 9 -15 8 -20 -5 -4 -11 -10 -13 -18 -7 -12 10 -50
-11 -39 -22 3 -4 1 -7 -5 -7 -7 0 -12 6 -12 13 0 8 -4 7 -10 -3 -5 -8 -10 -11
-10 -6 0 5 -10 1 -22 -10 -12 -10 -18 -13 -14 -6 4 6 2 12 -3 12 -6 0 -11 -5
-11 -11 0 -5 -4 -7 -10 -4 -5 3 -10 0 -10 -7 0 -10 -3 -9 -10 2 -8 12 -10 12
-16 -3 -5 -15 -9 -15 -22 -5 -12 10 -14 10 -8 1 4 -7 5 -13 2 -13 -3 0 -10 9
-16 20 -9 16 -8 19 6 13 13 -5 15 -3 7 13 -6 10 -10 32 -9 48 1 15 -4 30 -11
33 -7 3 -11 9 -8 13 3 5 -2 15 -10 23 -8 9 -15 19 -15 22 0 12 -45 44 -62 45
-10 0 -18 4 -18 9 0 5 -15 8 -34 7 -19 -1 -32 2 -30 6 3 5 0 8 -5 8 -6 0 -11
-5 -11 -11z m-50 -198 c0 11 2 11 10 -1 9 -13 10 -13 10 0 0 13 1 13 10 0 9
-13 10 -13 10 0 1 12 3 11 11 -3 6 -9 14 -15 19 -12 11 7 60 -15 60 -28 0 -5
7 -7 15 -3 8 3 14 2 14 -2 -3 -20 2 -33 11 -27 6 4 7 -1 3 -11 -4 -10 -2 -15
3 -11 6 3 11 -11 13 -34 1 -31 -1 -39 -11 -33 -9 5 -9 2 1 -10 13 -15 13 -19
0 -27 -8 -5 -10 -9 -6 -9 4 0 3 -9 -3 -20 -8 -16 -17 -19 -33 -14 -12 4 -28 7
-34 7 -7 0 -13 4 -13 9 0 4 -9 8 -21 8 -13 0 -18 4 -13 13 6 9 4 9 -8 -1 -10
-8 -19 -9 -22 -3 -6 9 -63 41 -73 41 -2 0 -2 -4 1 -9 4 -5 -12 0 -34 10 -23
11 -38 24 -35 29 4 6 0 10 -7 11 -10 0 -10 2 0 6 6 2 10 9 6 14 -3 5 0 9 6 9
6 0 8 5 5 10 -3 6 -1 10 4 10 6 0 11 8 11 18 0 11 10 27 23 38 22 19 22 19 7
-2 -8 -11 -4 -8 10 7 18 21 28 25 37 17 10 -8 13 -7 13 3z"/>
<path d="M9340 5588 c0 -5 -5 -6 -12 -2 -7 5 -8 3 -3 -6 4 -7 2 -16 -6 -21
-11 -7 -9 -9 6 -9 17 0 17 -2 5 -10 -8 -5 -10 -10 -3 -10 6 0 9 -9 6 -20 -3
-11 -9 -20 -14 -20 -5 0 -9 -6 -9 -13 0 -8 -7 -14 -15 -15 -8 -1 -22 -3 -30
-4 -8 -1 -15 -6 -15 -11 0 -5 -7 -7 -15 -3 -8 3 -15 1 -15 -4 0 -6 -12 -10
-26 -10 -14 0 -23 -4 -20 -9 4 -5 -4 -7 -16 -3 -12 3 -19 1 -15 -4 5 -9 -2
-11 -57 -17 -13 -1 -22 -5 -20 -9 6 -10 -42 -22 -55 -14 -5 4 -13 1 -17 -5 -5
-8 -3 -9 6 -4 8 5 11 4 7 -2 -4 -6 -17 -10 -29 -9 -13 1 -28 -5 -35 -14 -11
-13 -12 -13 -13 0 0 9 -3 11 -8 5 -15 -21 -59 -34 -71 -22 -9 9 -10 8 -5 -7 6
-16 4 -18 -9 -13 -9 3 -17 2 -17 -2 0 -5 -11 -8 -25 -6 -14 1 -25 -2 -25 -7 0
-5 -5 -6 -10 -3 -6 4 -8 11 -5 16 3 5 -1 6 -9 3 -11 -4 -16 0 -16 12 -1 27
-26 59 -33 42 -3 -8 -6 -6 -6 6 -1 14 -4 16 -14 8 -18 -15 -14 -58 9 -84 10
-12 13 -18 7 -14 -9 5 -11 2 -7 -8 3 -9 9 -16 13 -16 4 0 7 -10 8 -22 1 -11 8
-25 15 -29 10 -7 10 -9 -2 -9 -12 -1 -12 -2 2 -10 10 -6 14 -18 11 -30 -3 -12
0 -20 8 -20 7 0 9 -3 6 -7 -4 -3 0 -17 9 -31 9 -13 11 -21 5 -18 -6 4 -11 3
-11 -3 0 -5 5 -11 10 -13 6 -2 12 -15 14 -30 1 -14 11 -38 20 -53 10 -15 12
-24 5 -20 -7 5 -6 -1 4 -14 8 -13 13 -30 10 -39 -5 -11 -3 -13 7 -7 10 6 12 4
7 -8 -3 -10 -2 -17 4 -17 6 0 7 -5 4 -11 -4 -5 1 -20 12 -31 10 -12 12 -18 5
-14 -11 7 -12 4 -3 -11 6 -11 7 -24 3 -28 -4 -5 2 -5 12 -1 16 5 17 4 6 -9
-10 -12 -10 -15 1 -15 11 0 11 -2 -1 -10 -13 -8 -12 -10 3 -10 9 0 17 -5 17
-11 0 -8 6 -7 17 2 15 12 16 12 8 -1 -7 -13 -6 -13 7 -2 9 7 22 12 30 11 26
-3 39 1 32 12 -4 8 1 9 16 4 17 -5 21 -4 15 5 -5 9 -4 11 4 6 6 -4 19 -2 27 5
13 10 17 10 25 -2 7 -11 9 -11 9 0 0 7 6 11 14 8 8 -3 13 0 12 8 -3 20 -27 46
-37 39 -5 -3 -9 0 -9 7 0 9 -3 9 -14 0 -11 -9 -15 -8 -20 5 -5 13 -10 14 -18
6 -8 -8 -17 -8 -30 -1 -10 5 -23 7 -28 4 -6 -4 -13 1 -16 9 -3 9 -10 13 -15
10 -5 -3 -12 2 -15 10 -3 9 -10 13 -15 10 -5 -3 -6 3 -2 12 4 10 2 15 -3 11
-6 -3 -16 14 -23 39 -7 24 -17 44 -22 44 -5 0 -9 5 -9 11 0 5 6 7 13 4 6 -4 3
1 -7 9 -15 12 -16 16 -5 16 8 0 10 3 4 8 -12 9 -16 52 -4 52 5 0 9 8 9 17 0 9
3 13 7 10 3 -4 15 0 25 9 14 14 20 14 33 4 13 -11 14 -10 9 5 -5 13 -4 16 4
11 7 -4 12 -3 12 3 0 5 9 8 20 6 11 -2 20 1 20 7 0 6 3 9 6 6 3 -4 17 0 31 7
15 8 30 12 35 9 4 -3 8 0 8 5 0 6 3 10 8 10 21 -4 32 2 26 14 -6 9 -4 9 8 -1
12 -9 18 -10 23 -2 4 6 13 9 21 6 7 -3 16 -1 19 5 4 5 11 6 17 3 7 -5 8 -2 3
6 -6 10 -3 12 14 7 14 -3 24 0 28 9 3 8 8 12 12 9 4 -2 19 2 34 10 19 10 27
10 31 2 2 -7 5 -5 5 4 1 11 9 15 26 14 14 -2 25 1 25 6 0 5 12 9 26 9 26 0 54
-20 54 -40 0 -6 5 -8 13 -4 7 5 7 1 -3 -12 -8 -10 -11 -16 -6 -12 5 4 16 0 24
-9 11 -10 17 -12 20 -4 2 6 8 9 13 5 5 -3 9 0 9 5 0 6 -6 11 -12 11 -9 0 -8 4
2 10 12 7 12 10 1 10 -7 0 -11 6 -7 15 3 8 -2 19 -12 24 -11 7 -12 10 -4 11
10 0 10 4 -2 16 -14 13 -19 34 -15 60 0 4 -4 10 -11 14 -6 4 -12 23 -13 43 -1
19 -4 35 -7 35 -3 0 -12 0 -20 1 -13 1 -13 3 -1 10 12 7 12 13 3 24 -7 7 -8
17 -4 21 4 4 -2 14 -13 22 -11 8 -19 17 -17 19 7 14 0 32 -13 32 -8 0 -15 -4
-15 -9z"/>
<path d="M1210 5279 c0 -5 5 -7 10 -4 6 3 10 8 10 11 0 2 -4 4 -10 4 -5 0 -10
-5 -10 -11z"/>
<path d="M6374 4884 c3 -7 -3 -14 -14 -17 -11 -3 -18 -2 -15 2 2 4 -2 8 -10 8
-8 0 -12 -4 -10 -8 3 -4 -2 -10 -11 -13 -8 -3 -12 -2 -9 4 3 5 -4 8 -15 7 -11
-1 -20 -4 -20 -8 0 -4 -11 -6 -25 -4 -14 1 -25 -1 -25 -6 0 -4 -12 -6 -26 -3
-20 4 -25 1 -21 -10 4 -11 0 -13 -20 -10 -16 3 -33 -2 -46 -13 -11 -10 -17
-12 -13 -5 4 6 2 12 -3 12 -6 0 -11 -5 -11 -11 0 -6 -7 -9 -15 -5 -8 3 -15 1
-15 -5 0 -6 -4 -7 -10 -4 -5 3 -10 1 -10 -5 0 -7 -6 -10 -14 -7 -7 3 -25 -5
-38 -18 -14 -13 -29 -21 -33 -17 -3 4 -11 -1 -16 -11 -6 -9 -17 -17 -24 -17
-8 0 -15 -4 -15 -10 0 -5 -7 -10 -15 -10 -8 0 -15 -5 -15 -12 0 -6 -3 -8 -7
-5 -3 4 -19 -7 -35 -23 -15 -16 -28 -27 -28 -25 0 3 -15 -10 -34 -29 -19 -19
-38 -31 -41 -28 -4 4 -6 3 -5 -3 4 -19 0 -38 -7 -32 -7 8 -83 -102 -83 -120 0
-7 -4 -13 -9 -13 -5 0 -12 -14 -16 -30 -4 -17 -10 -28 -14 -25 -5 2 -8 -3 -8
-13 0 -33 -3 -43 -11 -38 -5 3 -8 -8 -7 -24 1 -17 -2 -30 -6 -30 -5 0 -5 -7
-2 -17 4 -11 3 -14 -5 -9 -7 4 -12 2 -12 -3 0 -6 5 -11 11 -11 8 0 7 -6 -2
-17 -12 -15 -12 -16 1 -8 12 6 13 5 3 -6 -7 -7 -13 -17 -13 -22 0 -4 6 -5 13
-1 9 6 8 3 -1 -9 -8 -9 -12 -26 -11 -39 2 -13 0 -28 -4 -35 -4 -6 -2 -15 4
-19 8 -5 9 -3 4 6 -5 8 -4 11 3 7 13 -9 10 -30 -6 -50 -11 -13 -10 -17 5 -26
15 -9 15 -12 4 -20 -9 -6 -10 -11 -2 -15 6 -4 11 -17 11 -30 0 -12 6 -28 13
-35 10 -11 9 -12 -2 -6 -11 6 -11 3 2 -14 8 -13 13 -29 11 -36 -3 -7 0 -16 5
-20 6 -3 9 -11 6 -16 -4 -5 2 -9 12 -9 14 0 15 -2 5 -9 -11 -7 -11 -11 2 -23
8 -9 12 -18 9 -22 -4 -3 -1 -6 5 -6 7 0 12 -7 12 -15 0 -8 4 -15 10 -15 5 0 7
-7 4 -15 -4 -9 0 -15 10 -15 14 0 20 -12 17 -32 0 -5 6 -8 15 -8 10 0 14 -6
11 -14 -3 -8 2 -20 11 -28 13 -11 15 -11 8 2 -4 8 0 6 8 -4 9 -11 16 -23 16
-26 0 -4 11 -13 25 -20 18 -10 22 -16 13 -22 -9 -5 -6 -8 10 -8 12 0 22 -4 22
-10 0 -5 7 -10 16 -10 9 0 18 -9 21 -20 3 -11 9 -18 13 -15 5 3 15 -2 24 -11
9 -8 20 -12 26 -9 6 4 9 1 8 -5 -2 -7 8 -14 22 -16 14 -3 27 -9 28 -14 2 -6 8
-8 13 -4 5 3 9 0 9 -6 0 -6 5 -8 10 -5 6 3 10 1 10 -4 0 -6 9 -11 20 -11 11 0
20 -6 20 -12 0 -9 4 -8 10 2 6 10 10 11 10 3 0 -7 7 -13 16 -13 9 0 23 -8 31
-17 14 -17 14 -17 9 2 -5 17 -4 18 6 5 7 -8 26 -21 42 -28 25 -11 28 -11 20 0
-5 8 -2 6 7 -4 9 -9 19 -14 23 -11 3 3 13 0 23 -8 11 -9 14 -10 9 -2 -5 9 -2
11 8 7 9 -3 14 -10 11 -14 -3 -5 6 -7 20 -6 13 2 22 0 20 -4 -3 -5 2 -11 11
-14 8 -3 12 -2 9 4 -3 6 -1 10 4 10 6 0 11 -8 11 -17 0 -15 2 -16 10 -3 8 12
10 12 10 1 0 -8 3 -11 7 -8 3 4 13 1 21 -6 13 -10 14 -9 8 1 -7 11 -4 12 13 3
11 -7 21 -14 21 -17 0 -3 -5 -2 -12 2 -7 4 -8 3 -4 -5 6 -9 11 -9 22 0 10 8
14 8 14 1 0 -6 6 -9 14 -6 7 3 21 -2 30 -11 12 -12 16 -13 16 -3 0 11 2 11 9
0 4 -8 11 -13 15 -13 20 3 26 0 20 -11 -5 -9 -2 -9 9 1 9 7 17 9 17 4 0 -5 12
-10 26 -11 31 -2 46 -11 39 -22 -3 -4 5 -6 17 -2 11 3 19 1 16 -4 -4 -5 6 -10
20 -11 14 0 31 -8 36 -15 6 -8 21 -14 33 -13 12 1 20 -2 17 -7 -3 -4 2 -8 10
-8 9 0 16 -4 16 -10 0 -5 9 -10 21 -10 11 0 18 -4 14 -9 -3 -5 4 -12 15 -16
11 -3 20 -11 20 -16 0 -6 3 -8 8 -6 9 6 33 -19 25 -27 -4 -3 1 -6 10 -6 10 0
17 -8 17 -21 0 -11 4 -18 9 -15 12 8 34 -21 26 -34 -4 -6 -3 -9 2 -8 4 2 9 -1
11 -7 2 -5 10 -14 18 -18 8 -5 12 -13 8 -18 -3 -5 0 -17 8 -26 9 -12 9 -15 1
-9 -18 10 -16 1 3 -18 12 -12 12 -16 2 -16 -10 0 -9 -3 2 -10 13 -9 13 -10 0
-10 -13 0 -13 -1 0 -10 13 -9 13 -11 0 -20 -8 -5 -10 -10 -4 -10 6 0 11 -7 11
-15 0 -8 -5 -15 -11 -15 -6 0 -4 -5 4 -10 12 -8 12 -10 1 -10 -11 0 -11 -3 -1
-15 10 -12 9 -16 -4 -21 -9 -3 -13 -10 -10 -15 3 -6 0 -17 -8 -26 -9 -12 -9
-15 0 -9 6 4 12 3 12 -2 0 -6 -7 -13 -16 -16 -8 -3 -12 -10 -9 -16 3 -5 1 -10
-5 -10 -6 0 -8 -4 -5 -10 3 -5 1 -10 -4 -10 -6 0 -10 -6 -9 -12 2 -7 -3 -12
-10 -10 -8 1 -11 -1 -8 -6 3 -5 -5 -20 -17 -33 -12 -13 -21 -27 -19 -32 1 -5
-2 -6 -8 -2 -6 3 -14 -4 -19 -17 -6 -13 -10 -17 -10 -9 -1 9 -8 6 -21 -9 -11
-13 -20 -19 -20 -15 0 5 -6 1 -13 -10 -8 -10 -19 -15 -25 -11 -6 3 -18 -1 -27
-10 -9 -9 -24 -14 -35 -11 -12 3 -17 1 -14 -5 3 -5 -2 -8 -12 -6 -12 2 -18 -2
-16 -11 3 -12 0 -12 -12 -1 -11 9 -16 9 -16 1 0 -8 -5 -9 -19 -1 -14 7 -22 7
-27 -2 -5 -7 -3 -8 6 -3 9 5 11 4 6 -4 -6 -9 -11 -9 -21 -1 -9 8 -15 8 -20 0
-4 -6 -13 -7 -23 -2 -21 10 -82 9 -99 -1 -8 -5 -13 -3 -13 5 0 9 -3 9 -10 -2
-5 -8 -10 -10 -10 -4 0 5 -21 11 -47 13 -26 1 -51 7 -54 13 -4 6 -14 8 -23 5
-9 -4 -16 -2 -16 4 0 6 -4 7 -10 4 -5 -3 -10 -1 -10 5 0 6 -4 9 -9 5 -5 -3
-12 -1 -16 5 -4 6 -11 8 -16 5 -5 -4 -9 -1 -9 5 0 6 -4 9 -9 5 -5 -3 -17 3
-27 12 -10 10 -20 18 -23 18 -3 0 -5 3 -4 7 2 4 -3 5 -10 2 -7 -2 -24 4 -36
15 -13 12 -28 18 -34 14 -5 -3 -7 -2 -4 4 4 5 -5 16 -18 23 -13 7 -22 17 -19
22 3 5 2 8 -3 7 -20 -3 -34 2 -28 11 3 6 -1 10 -10 10 -8 0 -20 11 -25 25 -5
14 -21 30 -34 37 -14 6 -23 15 -20 19 2 4 -5 13 -17 19 -11 7 -18 14 -15 17 3
4 -3 12 -14 20 -11 8 -20 21 -20 29 0 8 -4 14 -10 14 -5 0 -10 7 -10 15 0 8
-7 15 -16 15 -8 0 -12 5 -9 10 3 6 1 10 -5 10 -6 0 -9 4 -6 9 3 5 -5 20 -18
34 -13 14 -22 28 -19 31 3 3 -2 12 -11 21 -9 9 -16 25 -16 36 0 13 -4 17 -11
13 -7 -4 -10 -1 -7 6 2 8 -4 22 -14 32 -10 10 -16 23 -13 28 4 6 1 10 -5 10
-7 0 -10 7 -6 15 3 9 0 15 -8 15 -8 0 -13 8 -12 18 2 9 -3 22 -11 27 -7 6 -14
22 -15 37 -1 15 -5 25 -9 22 -4 -2 -12 3 -19 11 -11 13 -10 14 6 9 10 -4 16
-4 12 0 -3 4 -12 8 -20 10 -7 1 -19 6 -27 10 -10 7 -12 6 -6 -4 6 -10 3 -12
-13 -8 -12 4 -24 3 -27 -2 -2 -4 -20 -6 -40 -3 -25 2 -34 0 -33 -9 2 -7 -4
-12 -12 -10 -11 3 -10 -2 4 -17 17 -18 17 -21 3 -27 -15 -5 -15 -7 0 -22 15
-16 15 -17 -1 -20 -16 -4 -16 -5 1 -18 12 -9 14 -13 4 -14 -11 0 -11 -3 -1
-15 9 -11 9 -15 1 -15 -9 0 -9 -5 -1 -20 8 -14 8 -20 0 -20 -6 0 -8 -5 -4 -11
10 -17 13 -99 2 -105 -5 -3 -4 -12 3 -20 6 -8 8 -14 4 -14 -4 0 -2 -6 4 -13 6
-8 8 -17 4 -21 -11 -11 -10 -60 2 -68 6 -5 5 -8 -4 -8 -11 0 -11 -3 0 -17 10
-11 10 -14 2 -9 -7 4 -13 3 -13 -3 0 -5 5 -13 11 -17 8 -4 7 -9 -2 -15 -11 -7
-11 -9 1 -9 13 0 13 -1 0 -10 -12 -8 -12 -10 -1 -10 11 0 11 -3 1 -15 -9 -11
-9 -15 -1 -15 7 0 9 -5 4 -13 -11 -18 -12 -36 -2 -43 5 -3 9 -12 9 -20 0 -9
-5 -12 -11 -8 -6 3 -3 -6 7 -22 11 -15 14 -25 7 -21 -6 4 -14 3 -18 -3 -3 -5
-1 -10 6 -10 8 0 7 -5 -2 -17 -10 -11 -10 -14 -1 -9 10 6 14 0 14 -24 0 -3 -3
-15 -7 -27 -4 -15 -2 -23 5 -23 6 0 8 5 4 12 -5 7 -3 8 6 3 10 -6 7 -13 -11
-27 -13 -11 -19 -17 -13 -14 7 3 15 -1 18 -10 8 -21 8 -26 -2 -20 -5 3 -9 -1
-9 -9 0 -8 5 -15 10 -15 5 0 4 -7 -3 -15 -11 -13 -10 -14 5 -9 10 4 16 3 13
-2 -4 -5 5 -9 18 -9 13 0 24 4 24 9 0 6 5 5 11 -1 8 -8 20 -8 35 -3 16 6 24 6
24 -1 0 -6 7 -6 20 1 11 6 26 8 33 4 8 -5 7 -2 -2 9 -10 12 -10 17 -1 17 6 0
33 21 58 47 26 26 40 43 32 38 -8 -4 -12 -4 -7 0 10 12 37 15 37 5 0 -4 16
-11 35 -14 20 -4 33 -11 30 -15 -3 -5 2 -12 11 -15 10 -4 13 -2 8 7 -4 6 2 4
13 -6 11 -9 23 -14 26 -10 4 3 7 1 7 -5 0 -7 3 -11 8 -11 25 4 42 -2 36 -13
-4 -7 -4 -10 1 -6 4 4 15 2 23 -5 13 -9 14 -9 8 0 -4 7 -2 13 3 13 6 0 11 -5
11 -12 0 -6 3 -9 6 -5 4 3 13 -1 22 -9 8 -9 23 -13 33 -11 10 3 20 -1 23 -8 3
-8 13 -11 25 -8 12 3 21 1 21 -3 0 -5 16 -10 36 -10 20 -1 40 -8 45 -15 7 -12
9 -12 9 0 0 11 3 11 17 0 15 -12 16 -12 8 1 -6 12 -5 13 6 2 7 -6 30 -12 52
-12 21 0 36 -4 32 -9 -6 -11 28 -7 47 5 7 4 8 3 4 -4 -4 -8 0 -12 11 -13 10 0
37 -1 61 -2 23 -1 42 3 42 8 0 6 5 3 10 -5 7 -11 10 -11 10 -2 0 8 5 10 12 6
19 -12 48 -12 48 0 0 6 5 4 10 -4 5 -8 10 -10 10 -4 0 12 29 12 48 0 6 -4 12
-3 12 2 0 5 15 8 33 7 17 -1 35 3 39 9 5 7 8 7 8 -3 0 -11 3 -11 17 0 15 12
16 12 8 -1 -6 -12 -5 -12 5 -3 7 6 19 9 26 6 8 -3 14 1 14 8 0 11 3 11 10 -1
8 -12 10 -12 10 -1 0 10 3 11 14 2 11 -10 17 -8 25 6 8 14 10 15 11 3 0 -13 1
-13 10 0 8 13 10 13 10 1 0 -11 4 -10 16 5 8 10 13 13 9 7 -3 -7 -1 -13 4 -13
6 0 11 5 11 10 0 6 6 10 13 9 27 -3 38 1 31 14 -5 8 -2 8 9 -2 12 -9 17 -10
17 -2 0 7 5 9 10 6 6 -3 10 -1 10 6 0 8 4 8 15 -1 12 -10 15 -10 15 3 0 9 5
19 12 23 8 5 9 2 4 -11 -6 -18 -6 -18 12 -2 10 9 24 17 30 17 7 0 12 5 12 11
0 5 5 7 10 4 6 -3 10 -1 10 6 0 8 5 7 17 -2 11 -10 14 -10 9 -2 -4 8 -1 13 8
13 9 0 16 5 16 10 0 6 6 10 13 8 6 -2 22 7 35 20 12 12 27 20 32 17 6 -4 10 1
10 9 0 10 6 13 15 10 10 -4 15 0 15 11 0 9 4 14 9 10 5 -3 16 4 25 16 9 13 19
18 27 14 7 -5 10 -4 5 3 -3 6 3 13 13 17 13 4 18 11 14 22 -4 11 -2 14 5 9 8
-4 12 -1 12 10 0 10 3 15 6 11 7 -7 39 22 39 36 0 5 11 15 25 22 15 9 19 15
10 15 -12 1 -12 3 3 14 9 7 17 19 17 25 0 7 4 9 10 6 5 -3 7 0 4 8 -3 8 5 19
18 26 13 6 15 9 6 7 -15 -5 -16 -2 -6 14 7 10 16 16 22 13 5 -4 6 -1 1 6 -4 8
2 26 16 44 14 20 16 27 6 18 -15 -12 -17 -12 -11 3 3 9 10 16 14 16 5 0 7 9 5
20 -2 11 0 20 5 20 5 0 6 7 3 17 -4 10 -2 14 4 10 5 -3 10 0 10 8 0 8 -5 15
-11 15 -6 0 -3 5 7 11 10 6 14 15 10 22 -12 19 -12 37 0 37 8 0 7 4 -1 12 -9
9 -8 16 6 32 9 11 11 16 3 11 -9 -5 -12 -3 -9 6 3 8 1 22 -4 33 -7 13 -7 16 1
12 14 -9 14 -4 1 28 -6 18 -6 26 1 26 6 0 7 5 3 11 -4 7 -8 26 -9 43 -1 17 -6
30 -11 29 -5 -1 -9 11 -8 25 1 15 -4 33 -10 41 -8 11 -8 13 1 7 9 -5 11 -2 7
8 -3 9 -10 14 -15 11 -4 -3 -6 4 -4 15 2 11 0 20 -6 20 -5 0 -9 6 -9 13 0 18
-24 67 -32 67 -5 0 -8 7 -8 15 0 8 -4 15 -10 15 -5 0 -10 7 -10 15 0 8 -4 15
-10 15 -5 0 -10 5 -10 11 0 6 -13 24 -30 39 -16 15 -30 31 -30 34 0 12 -54 58
-80 68 -20 7 -22 11 -10 19 12 8 10 9 -6 4 -15 -4 -24 0 -28 11 -4 9 -9 14
-13 11 -3 -4 -12 1 -20 11 -10 11 -12 12 -8 2 4 -10 2 -9 -8 3 -8 9 -24 17
-37 17 -15 0 -20 4 -17 14 4 10 1 13 -9 9 -8 -3 -24 3 -36 13 -12 11 -18 13
-14 7 5 -9 2 -11 -8 -7 -9 3 -16 9 -16 13 0 4 -10 7 -22 8 -11 1 -24 6 -27 11
-3 5 -14 8 -24 6 -9 -1 -15 1 -12 6 3 4 -2 11 -11 14 -10 4 -13 2 -8 -7 4 -6
-2 -4 -13 6 -16 14 -22 15 -26 5 -4 -8 -6 -6 -6 5 -1 10 -5 16 -9 13 -5 -3
-21 1 -36 9 -18 10 -24 10 -20 2 4 -7 -2 -4 -14 7 -12 10 -28 16 -36 13 -8 -3
-20 1 -26 8 -7 8 -16 12 -21 9 -5 -3 -9 0 -9 6 0 6 -5 8 -11 4 -6 -3 -24 3
-39 15 -20 14 -31 17 -36 9 -5 -7 -3 -8 6 -3 9 6 11 4 5 -5 -6 -10 -11 -9 -22
5 -7 11 -13 13 -13 6 0 -7 -5 -9 -10 -6 -6 4 -8 10 -5 15 3 5 -3 9 -12 9 -16
0 -48 6 -63 11 -3 1 -9 2 -14 1 -5 -1 -5 6 -2 16 6 14 5 16 -5 6 -16 -16 -33
-17 -23 -1 5 8 2 9 -9 5 -10 -3 -17 -2 -17 4 0 6 -4 8 -9 4 -5 -3 -12 -1 -16
5 -4 6 -10 8 -15 5 -14 -8 -40 6 -33 19 3 6 3 8 -2 4 -4 -4 -20 -1 -34 7 -14
7 -41 19 -58 27 -18 7 -33 17 -33 21 0 5 -4 6 -10 2 -5 -3 -18 3 -29 14 -11
11 -22 17 -25 13 -3 -3 -6 0 -6 6 0 7 -7 12 -15 12 -8 0 -15 5 -15 10 0 6 -15
26 -34 45 -19 18 -31 36 -28 39 3 3 0 6 -7 6 -7 0 -10 4 -6 9 3 5 -2 16 -10
24 -8 9 -15 22 -15 29 0 8 -5 19 -12 26 -9 9 -9 12 1 12 10 0 11 3 2 14 -9 11
-9 15 1 19 9 4 8 6 -3 6 -9 1 -16 8 -16 16 0 8 4 12 9 9 11 -7 10 3 -3 28 -7
13 -7 18 0 14 6 -4 9 6 7 29 -3 23 0 33 7 28 6 -4 8 0 4 10 -3 10 -2 17 3 17
5 0 7 7 4 15 -4 8 -1 15 5 15 6 0 11 7 11 15 0 8 9 23 21 34 12 11 18 24 15
30 -3 5 3 12 13 16 11 3 23 15 26 26 5 14 12 18 23 14 9 -3 13 -3 10 1 -10 9
20 37 31 29 5 -3 13 0 17 6 5 8 3 9 -7 4 -11 -6 -11 -5 -3 4 6 7 18 13 25 14
8 2 21 7 29 12 8 5 21 10 29 12 8 1 17 7 21 13 6 9 9 9 14 -1 5 -11 7 -11 12
-1 5 10 9 10 20 1 11 -9 15 -8 20 5 5 14 9 14 22 4 10 -8 13 -8 9 -2 -4 7 0
15 9 18 10 4 13 2 8 -6 -5 -8 5 -9 34 -4 31 4 42 3 42 -6 0 -8 3 -9 8 -3 12
17 72 12 72 -5 0 -13 1 -13 10 0 6 10 10 11 10 3 0 -7 5 -13 11 -13 5 0 7 6 3
13 -6 8 -3 8 9 -1 9 -8 21 -11 27 -7 5 3 10 -1 10 -9 0 -9 5 -16 11 -16 5 0 7
4 4 10 -3 6 1 7 9 4 9 -3 16 -10 16 -15 0 -5 5 -9 11 -9 5 0 7 6 4 13 -4 6 -1
5 7 -4 7 -9 23 -19 36 -23 12 -4 22 -12 22 -18 0 -6 3 -8 6 -5 4 4 15 -3 25
-15 13 -14 19 -17 19 -7 0 8 8 2 18 -14 9 -15 22 -25 29 -23 7 3 12 0 10 -7
-1 -7 4 -11 11 -9 6 1 11 -2 10 -6 -2 -4 9 -20 24 -34 15 -14 25 -28 21 -31
-3 -4 2 -9 11 -13 9 -3 16 -13 16 -21 0 -8 5 -11 10 -8 6 3 10 -3 10 -15 0
-12 5 -18 10 -15 6 3 10 0 10 -9 0 -8 5 -16 10 -18 6 -2 12 -13 13 -26 1 -13
6 -21 14 -18 7 3 10 -1 6 -10 -3 -7 -1 -14 5 -14 9 0 23 -34 19 -45 -1 -2 7
-10 17 -18 11 -8 16 -19 12 -26 -4 -6 0 -14 8 -17 9 -3 16 -17 16 -30 0 -13 5
-24 10 -24 6 0 10 -9 10 -20 0 -11 5 -20 10 -20 6 0 10 -9 10 -19 0 -11 6 -22
13 -24 9 -4 9 -6 -1 -6 -8 -1 -6 -8 7 -23 17 -17 18 -24 8 -37 -9 -12 -9 -13
1 -7 7 4 12 1 12 -9 0 -10 5 -13 13 -9 7 5 6 0 -3 -11 -9 -11 -10 -16 -2 -11
7 4 12 2 12 -4 0 -7 7 -10 15 -6 8 3 15 0 15 -6 0 -7 5 -6 15 2 12 10 15 10
15 -1 0 -9 3 -10 8 -4 6 9 26 12 35 5 9 -7 45 -5 40 3 -4 6 1 8 12 3 15 -5 16
-4 5 9 -10 12 -10 15 1 15 10 0 10 3 1 12 -14 14 -16 32 -2 23 7 -4 7 3 0 20
-13 34 -13 38 3 29 7 -5 7 -1 -2 10 -12 14 -12 19 -2 26 8 5 9 10 3 14 -12 7
-11 24 2 45 6 9 5 12 -1 8 -6 -4 -14 0 -17 9 -3 8 -2 12 4 9 10 -6 7 65 -4 83
-4 7 -3 12 1 12 5 0 9 9 10 20 1 11 -3 20 -9 20 -6 0 -6 6 2 15 9 11 10 19 1
28 -8 10 -7 17 1 25 9 9 9 12 -1 12 -11 0 -11 3 -1 15 9 11 9 15 1 15 -7 0 -9
5 -4 13 12 20 12 37 0 37 -7 0 -5 5 3 10 8 5 10 10 3 10 -12 0 -12 17 0 37 4
6 3 14 -3 18 -5 3 -10 11 -10 16 0 6 5 7 11 3 8 -5 8 -1 0 13 -7 14 -7 24 2
33 9 10 9 11 -1 6 -9 -6 -11 -1 -8 18 3 14 8 31 12 37 4 7 3 9 -3 6 -6 -4 -10
6 -11 24 0 16 3 27 9 24 5 -3 6 1 3 9 -3 9 -11 13 -18 9 -6 -3 -3 3 7 14 13
15 15 23 7 28 -7 4 -10 15 -7 25 3 13 -2 17 -22 16 -14 -1 -32 3 -38 8 -9 5
-13 4 -13 -5 0 -11 -2 -11 -10 1 -7 11 -10 11 -10 2 0 -7 -5 -10 -10 -7 -6 4
-8 12 -4 18 3 7 -1 4 -9 -5 -15 -19 -32 -25 -22 -8 11 18 -4 10 -30 -16 -14
-14 -30 -22 -35 -19 -6 4 -9 1 -8 -6 2 -7 -7 -18 -20 -24 -12 -5 -25 -18 -28
-28 -5 -15 -8 -16 -22 -5 -13 11 -14 11 -8 0 7 -11 4 -12 -12 -3 -12 6 -24 16
-27 21 -4 6 -11 8 -16 5 -5 -4 -9 -1 -9 4 0 6 -11 11 -24 11 -14 0 -28 5 -32
12 -5 7 -3 8 6 3 8 -5 11 -4 7 3 -4 5 -16 8 -27 5 -11 -3 -20 -1 -20 5 0 6 -9
9 -20 7 -11 -2 -23 1 -26 7 -5 7 -2 8 6 3 9 -5 11 -4 6 4 -6 9 -11 9 -22 0 -8
-6 -14 -7 -14 -2 0 5 -9 10 -20 11 -43 4 -50 6 -50 14 0 4 -13 8 -29 8 -17 0
-31 6 -35 16 -5 13 -9 14 -20 5 -11 -9 -15 -9 -19 1 -4 10 -6 9 -6 -1 -1 -11
-5 -10 -17 5 -8 10 -13 14 -9 7 4 -8 -3 -12 -24 -10 -16 1 -27 5 -25 9 3 4 -8
6 -25 4 -16 -2 -35 0 -42 5 -8 5 -17 3 -21 -4 -6 -9 -8 -9 -8 0 0 7 -7 10 -15
7 -9 -4 -15 0 -16 7 0 8 -4 5 -9 -6 -5 -11 -9 -15 -9 -8 -1 7 -11 10 -26 7
-16 -3 -25 0 -25 8 0 10 -2 10 -9 -1 -6 -9 -11 -10 -15 -2 -5 8 -13 8 -27 1
-14 -8 -19 -7 -19 2 0 9 -3 10 -8 2 -4 -6 -17 -10 -29 -9 -13 1 -23 -3 -23 -9
0 -5 -7 -1 -16 10 -8 10 -13 14 -10 8z"/>
<path d="M9095 4810 c3 -5 8 -10 11 -10 2 0 4 5 4 10 0 6 -5 10 -11 10 -5 0
-7 -4 -4 -10z"/>
<path d="M3430 4361 c0 -6 4 -13 10 -16 6 -3 7 1 4 9 -7 18 -14 21 -14 7z"/>
<path d="M923 4256 c1 -6 -3 -10 -10 -9 -8 2 -10 -4 -6 -14 4 -10 2 -14 -4
-10 -5 3 -9 -3 -8 -15 2 -25 -27 -58 -51 -58 -8 0 -13 -4 -9 -9 3 -6 -4 -8
-15 -6 -11 2 -20 -1 -20 -7 0 -5 -7 -8 -15 -4 -8 3 -15 0 -15 -6 0 -6 -3 -8
-7 -5 -3 4 -12 -1 -20 -11 -14 -16 -14 -16 -8 3 6 18 5 18 -15 -2 -21 -24 -36
-31 -25 -13 9 15 -2 12 -19 -6 -9 -8 -25 -16 -36 -17 -11 -1 -20 -5 -20 -10 0
-4 -5 -5 -11 -2 -6 4 -17 -1 -25 -11 -9 -11 -12 -12 -8 -4 7 13 6 13 -9 1 -10
-8 -27 -14 -40 -15 -12 -1 -21 -7 -20 -12 1 -6 -9 -10 -22 -8 -14 1 -25 -2
-25 -7 0 -5 -3 -8 -7 -8 -19 3 -34 -2 -29 -9 2 -4 -11 -7 -29 -7 -19 1 -32 -2
-29 -7 5 -7 -10 -12 -28 -9 -5 0 -8 -3 -8 -9 0 -5 -5 -10 -11 -10 -5 0 -7 6
-3 13 5 8 3 8 -9 -2 -9 -7 -14 -17 -12 -22 3 -4 -6 -6 -20 -3 -14 2 -25 0 -25
-6 0 -6 -4 -8 -10 -5 -5 3 -10 2 -10 -4 0 -5 -9 -8 -20 -6 -11 2 -18 0 -15 -5
3 -5 1 -11 -5 -15 -7 -4 -6 -13 1 -27 9 -16 8 -23 -2 -29 -11 -7 -11 -9 1 -9
13 0 13 -1 0 -10 -13 -8 -12 -10 3 -10 9 0 17 -8 17 -17 0 -9 3 -13 7 -10 3 4
13 1 21 -6 13 -10 14 -9 7 3 -4 8 2 4 15 -8 17 -19 24 -21 31 -11 6 11 9 10
15 -4 3 -9 10 -14 15 -11 5 3 9 1 9 -5 0 -5 9 -8 20 -6 12 2 20 -2 20 -10 0
-9 6 -12 15 -9 8 4 15 1 15 -5 0 -6 3 -10 8 -10 25 4 42 -3 42 -18 0 -14 2
-15 9 -4 7 10 10 10 13 1 2 -7 17 -14 32 -16 15 -2 35 -11 43 -21 8 -10 12
-13 9 -6 -4 7 1 9 14 6 11 -3 20 -9 20 -14 0 -5 7 -9 15 -9 8 0 15 -4 15 -9 0
-6 9 -8 20 -6 11 2 23 -1 26 -7 5 -7 2 -8 -6 -3 -8 5 -11 4 -7 -3 4 -5 16 -8
27 -5 12 3 22 0 25 -9 3 -7 17 -15 32 -16 15 -1 30 -7 33 -12 4 -6 17 -12 31
-15 13 -2 37 -19 52 -37 18 -21 26 -26 21 -13 -4 11 -4 17 1 13 4 -4 9 -22 10
-40 2 -18 8 -34 14 -36 6 -2 11 -8 11 -13 0 -6 -6 -7 -12 -3 -9 5 -9 3 1 -9
15 -19 31 -14 31 11 0 15 2 15 11 2 9 -12 10 -11 4 5 -14 40 -15 64 -4 71 8 5
9 3 4 -6 -6 -9 -4 -11 5 -5 10 6 10 11 -3 20 -17 12 -24 31 -9 21 4 -2 8 4 8
15 0 10 -3 19 -6 19 -8 0 -6 38 3 46 3 4 1 16 -5 27 -9 17 -8 19 6 14 12 -5
15 -3 9 6 -7 11 -9 17 -16 52 -2 8 -7 18 -12 22 -4 4 -5 2 -1 -4 4 -8 1 -13
-8 -13 -9 0 -17 -3 -17 -7 -1 -5 -3 -17 -4 -28 -5 -43 -17 -65 -36 -65 -13 0
-18 -4 -13 -12 4 -7 -7 -2 -24 11 -22 15 -32 18 -32 9 -1 -8 -6 -6 -15 6 -8
11 -15 16 -15 12 0 -5 -7 -3 -15 4 -8 6 -18 9 -23 6 -21 -13 -36 63 -18 92 4
6 3 12 -1 12 -10 0 -10 86 0 96 3 4 2 15 -3 25 -7 12 -6 22 5 32 8 8 11 17 8
20 -3 4 4 5 15 2 12 -2 23 3 26 12 5 12 9 13 21 3 12 -10 15 -9 15 3 0 10 6
14 15 11 9 -4 18 1 21 11 5 13 9 14 15 3 5 -7 9 -8 9 -2 0 6 10 9 24 7 15 -3
23 -11 21 -21 -1 -10 0 -21 4 -27 3 -5 6 -14 7 -20 0 -5 2 -15 2 -22 1 -6 10
-10 20 -8 9 2 22 4 27 4 6 1 3 6 -5 11 -11 7 -11 10 -2 10 7 0 10 5 6 12 -6
10 -7 82 0 165 1 18 -3 35 -8 37 -7 3 -6 5 1 5 7 1 10 8 7 16 -4 8 0 23 7 32
9 11 10 14 2 9 -10 -5 -12 5 -10 44 2 27 0 50 -5 50 -5 0 -7 4 -4 8 3 5 -1 9
-9 9 -8 0 -13 -5 -12 -11z m-277 -388 c4 4 2 -2 -6 -12 -8 -11 -10 -17 -3 -13
8 5 11 -2 11 -23 -1 -16 -6 -30 -12 -30 -7 0 -7 -3 -1 -8 16 -11 19 -46 3 -36
-11 6 -11 5 0 -8 15 -19 11 -56 -8 -68 -18 -11 -53 7 -44 22 5 7 1 9 -9 5 -10
-3 -17 -2 -17 4 0 6 -7 6 -20 -1 -17 -9 -19 -8 -13 7 3 10 2 15 -2 10 -5 -4
-17 1 -28 10 -11 10 -17 13 -14 6 5 -7 0 -9 -13 -6 -11 3 -17 10 -13 16 4 6 0
8 -10 4 -9 -3 -19 -2 -22 4 -4 5 -10 7 -15 4 -5 -3 -12 0 -16 6 -5 8 -3 9 6 4
10 -6 12 -4 7 8 -4 12 -1 17 11 17 10 0 24 6 31 13 11 10 12 9 6 -3 -6 -12 -5
-13 6 -2 7 6 21 12 31 12 10 0 18 5 18 11 0 6 9 9 20 6 11 -3 20 -1 20 5 0 6
7 7 16 4 8 -3 13 -2 10 3 -3 5 6 12 19 15 17 4 23 11 18 19 -5 9 -3 9 9 0 8
-7 19 -9 24 -5z"/>
<path d="M9684 4158 c-10 -12 -13 -18 -6 -14 6 4 12 2 12 -3 0 -6 -5 -11 -11
-11 -6 0 -8 -7 -5 -15 3 -9 -1 -18 -9 -21 -8 -4 -13 -10 -10 -14 6 -10 -21
-22 -57 -25 -16 -2 -25 1 -22 7 4 6 -3 5 -14 -1 -14 -8 -23 -8 -27 -1 -5 8
-11 8 -19 1 -9 -7 -16 -7 -23 0 -8 8 -13 7 -18 -2 -6 -8 -4 -10 5 -4 9 6 11 4
6 -4 -6 -9 -13 -8 -29 6 -12 10 -17 12 -12 4 6 -11 4 -13 -7 -8 -9 3 -21 0
-28 -6 -10 -9 -11 -9 -6 1 5 7 1 12 -9 12 -10 0 -13 -5 -9 -12 5 -7 3 -8 -7
-2 -21 13 -39 14 -39 1 0 -7 -5 -5 -10 3 -5 8 -10 11 -10 5 0 -5 -5 -3 -10 5
-8 12 -10 12 -10 -5 -1 -20 -1 -20 -15 -1 -14 19 -15 19 -15 2 0 -15 -3 -16
-15 -6 -12 10 -15 10 -15 -1 0 -11 -2 -11 -10 1 -9 13 -10 13 -10 0 0 -9 -3
-11 -8 -5 -9 12 -62 14 -62 3 0 -5 -9 -4 -20 2 -11 6 -20 7 -20 2 0 -5 -13 -7
-30 -4 -17 2 -30 10 -30 18 0 8 -5 14 -11 14 -6 0 -9 7 -5 15 3 8 0 15 -6 15
-7 0 -6 5 2 15 13 15 13 15 -33 29 -8 2 -14 -1 -15 -7 0 -7 -3 -27 -6 -44 -3
-19 -1 -33 5 -33 6 0 7 5 3 12 -5 7 -3 8 5 4 9 -6 9 -12 -3 -25 -9 -10 -13
-21 -9 -25 11 -11 10 -30 -2 -38 -6 -5 -5 -8 4 -8 10 0 11 -3 2 -14 -9 -11 -9
-16 0 -22 8 -5 9 -3 4 6 -6 9 -4 11 5 5 10 -6 9 -11 -5 -22 -12 -8 -14 -13 -6
-13 11 0 11 -3 0 -17 -12 -15 -12 -16 3 -10 12 4 15 2 11 -9 -3 -7 -10 -14
-16 -14 -6 0 -2 -7 9 -16 15 -13 16 -15 2 -10 -12 3 -15 1 -11 -9 3 -8 8 -13
12 -11 4 3 7 -4 7 -14 0 -15 -3 -17 -15 -7 -12 10 -13 9 -2 -12 7 -13 11 -34
8 -47 -3 -16 2 -28 12 -34 14 -8 14 -9 -2 -10 -11 0 -15 -5 -11 -11 14 -23 9
-114 -6 -127 -13 -11 -13 -11 1 -6 14 4 16 0 9 -35 -6 -33 -4 -45 11 -63 11
-11 19 -18 19 -14 0 4 10 2 21 -5 16 -8 20 -8 14 0 -4 8 3 10 26 6 18 -3 36
-8 41 -11 4 -3 8 1 8 8 0 10 2 10 9 -1 7 -11 9 -11 14 0 4 9 8 10 14 4 11 -13
43 -16 43 -3 0 5 4 7 9 3 6 -3 9 4 8 15 -1 11 -8 20 -16 20 -7 0 -20 8 -28 18
-10 11 -12 12 -8 2 4 -10 2 -9 -8 3 -8 9 -19 17 -26 17 -6 0 -11 5 -11 10 0 6
-8 10 -18 10 -21 0 -56 33 -45 43 3 4 2 7 -4 7 -9 0 -21 24 -27 55 -1 6 2 16
7 23 6 8 5 12 -3 12 -9 0 -10 3 -1 13 8 10 7 17 -1 25 -9 9 -9 12 3 12 12 0
12 2 -1 10 -13 9 -13 10 0 10 13 0 13 1 0 10 -13 9 -13 11 0 20 13 9 13 10 0
10 -12 0 -13 2 -1 9 7 5 10 14 7 20 -4 6 0 11 8 11 9 0 16 5 16 11 0 5 5 7 10
4 6 -4 17 -1 25 5 8 7 15 8 15 3 0 -11 29 -11 47 0 6 4 14 4 17 -1 6 -10 72
-8 105 3 14 4 21 2 21 -6 0 -7 6 -5 13 6 11 14 16 15 22 5 5 -9 4 -11 -3 -6
-7 4 -12 2 -12 -3 0 -6 5 -11 11 -11 7 0 9 -12 7 -30 -3 -17 -1 -33 4 -36 5
-3 4 -12 -3 -20 -6 -8 -8 -14 -4 -14 4 0 1 -8 -6 -17 -12 -14 -12 -16 1 -9 9
4 8 1 -2 -7 -10 -8 -18 -20 -18 -27 0 -10 -3 -10 -15 0 -13 11 -14 10 -9 -6 4
-10 3 -16 -1 -11 -5 4 -19 0 -33 -9 -13 -9 -21 -11 -18 -5 4 7 1 9 -7 5 -8 -3
-14 -13 -12 -22 1 -9 -3 -23 -9 -31 -9 -12 -7 -12 13 -1 22 11 23 11 17 -6 -5
-16 -4 -17 6 -4 20 23 49 25 42 3 -5 -14 -4 -15 4 -4 7 10 35 15 94 16 46 0
90 5 98 10 10 6 12 4 6 -10 -6 -16 -4 -16 11 -4 10 7 20 14 22 16 7 4 -25 38
-39 41 -8 2 -16 8 -18 13 -2 5 -11 9 -21 9 -19 0 -55 55 -46 70 3 6 1 10 -5
10 -8 0 -8 6 0 20 6 12 7 20 1 20 -10 0 -9 14 4 42 4 10 11 15 16 12 5 -3 9 0
9 7 0 10 3 10 11 2 7 -7 21 -8 40 -3 21 6 27 5 23 -2 -5 -8 -1 -9 11 -5 9 4
24 2 31 -4 11 -9 13 -9 9 2 -4 10 4 14 28 13 19 -1 39 -4 45 -8 7 -4 12 -2 12
4 0 7 6 8 19 1 10 -6 21 -8 24 -5 3 3 4 -2 2 -13 -2 -10 -4 -18 -5 -18 -7 0
-5 -47 2 -51 4 -3 3 -14 -3 -26 -8 -15 -8 -19 0 -14 12 8 15 -6 4 -18 -11 -11
-12 -37 -1 -30 6 4 5 -2 -1 -15 -7 -11 -8 -21 -4 -21 4 0 -2 -7 -13 -16 -10
-8 -12 -12 -4 -8 8 4 -3 -10 -25 -32 -22 -22 -44 -38 -48 -36 -5 2 -15 -4 -23
-14 -9 -11 -12 -13 -8 -5 4 8 3 12 -3 8 -9 -6 -12 -41 -3 -43 3 0 16 -6 29
-13 16 -9 21 -9 16 -2 -5 9 9 11 49 7 41 -3 54 -1 50 7 -5 8 -2 8 7 0 15 -15
33 -17 25 -4 -3 5 1 11 9 15 8 3 15 11 15 17 0 9 -4 8 -14 0 -12 -10 -13 -8
-9 11 3 13 11 29 17 37 8 11 8 13 0 8 -7 -4 -15 0 -18 9 -3 8 -2 13 3 10 5 -3
11 1 15 9 3 8 1 17 -4 20 -14 9 -11 117 3 108 7 -3 4 3 -6 14 -13 15 -15 22
-6 25 9 3 9 9 0 26 -7 14 -8 22 -2 22 7 0 7 9 1 25 -7 18 -6 25 3 25 8 0 7 4
-3 10 -8 5 -10 10 -5 10 11 0 13 39 2 56 -3 5 -2 16 3 23 4 8 5 25 1 40 -4 14
-6 51 -5 83 1 46 -2 55 -14 50 -10 -3 -13 -1 -8 6 12 19 1 14 -20 -10z"/>
<path d="M8935 2890 c3 -5 1 -10 -5 -10 -7 0 -10 -7 -6 -15 3 -8 1 -15 -5 -15
-6 0 -7 -4 -4 -10 3 -5 1 -10 -6 -10 -7 0 -9 -3 -6 -7 4 -3 -1 -15 -10 -25
-16 -18 -16 -18 3 -12 17 6 16 4 -3 -15 -25 -24 -30 -37 -10 -25 8 6 8 3 -2
-9 -7 -9 -11 -23 -7 -32 3 -8 0 -14 -7 -12 -7 1 -12 -5 -12 -14 0 -9 -6 -24
-14 -33 -11 -13 -11 -16 0 -16 8 0 5 -6 -7 -15 -19 -15 -19 -15 1 -8 18 6 19
5 5 -12 -8 -10 -10 -16 -3 -12 6 4 14 1 16 -5 3 -8 6 -6 6 5 1 10 5 16 11 12
5 -3 16 7 24 23 20 38 61 60 86 44 12 -7 21 -8 25 -2 3 6 11 10 16 10 6 0 7
-5 3 -12 -5 -8 -2 -9 9 -5 10 4 17 1 17 -6 0 -8 4 -6 10 3 7 12 10 12 10 1 0
-8 6 -11 16 -7 8 3 12 2 9 -4 -6 -10 6 -14 38 -11 10 2 17 -5 18 -16 0 -10 3
-13 6 -6 3 10 11 9 34 -2 16 -9 31 -15 34 -15 21 1 26 -1 21 -8 -3 -5 9 -8 25
-7 19 1 33 -4 36 -12 5 -12 7 -12 14 -1 7 10 9 9 9 -5 0 -10 5 -15 10 -12 6 4
18 1 27 -7 14 -11 16 -11 9 1 -6 9 0 8 17 -4 14 -9 28 -16 31 -16 19 3 26 -1
26 -15 0 -9 5 -12 13 -8 6 4 9 4 5 -1 -9 -10 -98 -13 -91 -2 6 10 -5 9 -29 -4
-15 -8 -19 -8 -14 0 9 14 0 14 -26 0 -15 -8 -19 -8 -14 0 4 6 0 11 -8 11 -9 0
-16 -5 -16 -11 0 -8 -4 -8 -13 0 -8 6 -24 8 -38 5 -35 -9 -61 -8 -86 0 -19 6
-22 4 -17 -11 6 -16 5 -15 -9 2 -10 12 -16 15 -17 7 0 -10 -5 -10 -20 -2 -17
9 -20 8 -20 -7 0 -15 -2 -15 -9 -4 -12 19 -54 23 -47 5 3 -8 0 -11 -9 -7 -8 3
-13 8 -11 12 2 3 -13 6 -34 6 -29 0 -37 -3 -33 -15 3 -10 -1 -8 -11 4 -9 11
-16 15 -16 9 0 -7 -14 -8 -40 -3 -34 6 -38 5 -28 -7 9 -11 8 -13 -3 -11 -8 2
-13 -3 -11 -9 1 -7 -2 -13 -7 -13 -6 0 -9 -9 -8 -20 1 -11 6 -20 12 -20 6 0
17 -9 25 -19 7 -11 17 -18 22 -15 7 5 12 -10 9 -28 0 -4 7 -4 16 -1 11 4 14 3
9 -5 -4 -7 -2 -12 6 -12 7 0 19 -9 26 -20 7 -11 18 -20 25 -20 7 0 19 -9 27
-20 8 -11 20 -20 27 -20 7 0 12 -4 11 -9 -2 -5 0 -9 5 -10 10 -1 43 -36 50
-52 4 -11 6 -11 6 -1 1 10 4 10 15 0 8 -7 12 -16 9 -20 -2 -5 3 -8 11 -8 9 0
21 -9 28 -20 7 -11 19 -20 26 -20 7 0 10 -4 7 -10 -3 -5 0 -10 8 -10 8 0 24
-13 37 -30 13 -16 29 -30 36 -30 8 0 14 -4 14 -9 0 -5 9 -13 21 -16 16 -5 18
-10 8 -21 -6 -7 -16 -11 -21 -8 -6 4 -5 10 3 16 9 5 4 6 -13 2 -18 -4 -28 -2
-28 6 0 6 -4 9 -9 6 -12 -8 -42 4 -36 14 2 4 -7 6 -20 4 -14 -1 -25 2 -25 7 0
4 -7 5 -17 2 -10 -4 -14 -2 -10 4 4 6 -2 13 -13 16 -11 3 -18 1 -14 -4 3 -5
-2 -6 -10 -3 -9 3 -16 11 -16 16 0 6 -8 4 -17 -3 -9 -8 -14 -9 -10 -3 4 7 -1
18 -10 25 -12 10 -14 10 -9 2 4 -7 2 -13 -3 -13 -6 0 -11 5 -11 12 0 6 -3 8
-7 5 -3 -4 -15 1 -26 10 -11 10 -17 12 -13 6 4 -7 2 -13 -3 -13 -6 0 -11 5
-11 11 0 5 -4 8 -9 4 -5 -3 -15 1 -23 8 -7 7 -21 13 -30 13 -36 3 -39 4 -32
16 4 7 3 8 -4 4 -7 -4 -28 1 -48 10 -34 16 -35 19 -32 63 2 25 8 49 13 53 6 4
2 8 -8 8 -10 0 -16 4 -13 9 4 5 -2 7 -12 4 -12 -3 -23 -21 -31 -54 -9 -32 -17
-47 -24 -42 -7 4 -6 -1 2 -10 9 -11 10 -17 2 -17 -6 0 -10 -3 -10 -7 3 -21 -2
-33 -13 -27 -6 4 -8 3 -4 -4 3 -6 2 -14 -4 -17 -8 -5 -7 -12 2 -23 11 -14 10
-15 -7 -8 -15 5 -17 4 -8 -5 14 -14 6 -42 -10 -32 -6 4 -8 0 -4 -10 3 -9 2
-19 -4 -23 -5 -3 -7 -15 -3 -26 4 -15 3 -18 -7 -13 -9 6 -11 3 -6 -8 3 -10 2
-17 -2 -17 -5 0 -8 -11 -7 -24 0 -13 5 -22 10 -19 4 3 12 0 16 -7 5 -8 9 -7
13 5 5 11 3 14 -6 10 -6 -3 -2 2 11 11 12 9 22 23 22 30 0 8 6 14 14 14 8 0
17 6 19 13 4 8 8 8 14 2 9 -12 29 -18 60 -18 12 -1 20 -4 18 -8 -3 -3 13 -9
36 -13 22 -3 37 -11 34 -16 -3 -5 3 -7 14 -5 11 2 22 -3 25 -11 3 -7 12 -11
21 -8 9 4 15 1 15 -7 0 -10 3 -10 12 -1 15 15 31 16 22 0 -5 -8 -2 -9 9 -5 10
4 16 2 14 -6 -1 -7 8 -11 21 -11 12 1 22 -3 22 -8 0 -5 5 -6 10 -3 6 3 10 1
10 -4 0 -6 5 -11 11 -11 5 0 7 6 3 13 -6 8 -3 8 9 -1 9 -8 21 -11 27 -7 6 4 9
1 8 -5 -3 -12 12 -18 55 -24 10 -1 23 -9 28 -17 7 -11 9 -11 9 -1 0 11 2 11
14 0 7 -7 23 -20 35 -28 15 -10 17 -16 8 -22 -9 -6 -9 -8 2 -8 10 0 11 -3 2
-13 -10 -13 -8 -54 5 -66 4 -3 9 0 11 7 3 6 9 10 14 6 5 -3 9 -2 10 3 3 29 9
47 21 54 10 7 10 9 -2 9 -12 0 -12 2 -2 9 8 4 13 11 13 15 -2 23 13 65 22 59
7 -4 8 0 4 12 -4 9 -3 23 3 30 6 7 13 23 15 35 2 13 12 32 22 44 17 20 17 20
0 7 -16 -13 -17 -12 -8 12 8 21 7 25 -4 20 -8 -3 -15 0 -15 6 0 6 -7 11 -15
11 -8 0 -15 5 -15 11 0 5 -4 7 -10 4 -5 -3 -10 1 -10 9 0 9 -5 16 -11 16 -5 0
-7 -5 -3 -12 4 -7 3 -8 -5 -4 -6 4 -9 11 -6 16 3 4 -2 13 -10 20 -8 7 -15 10
-15 7 0 -4 -15 9 -34 27 -18 19 -46 41 -62 51 -16 9 -21 14 -11 11 11 -3 15
-2 12 4 -3 6 -13 10 -21 10 -8 0 -17 7 -20 15 -4 8 -13 15 -21 15 -8 0 -17 9
-20 20 -3 11 -9 18 -13 15 -5 -3 -15 3 -22 13 -13 19 -18 22 -36 22 -5 0 -9 7
-9 15 0 9 6 14 14 11 7 -3 13 -1 13 4 0 6 5 10 11 10 5 0 8 -4 5 -8 -8 -13 64
-4 82 10 13 11 14 11 8 -1 -7 -10 -3 -12 14 -6 15 5 20 4 16 -4 -11 -18 5 -13
21 7 14 16 14 16 8 -3 -5 -16 -4 -18 6 -7 7 6 17 12 22 12 4 0 5 -6 1 -12 -5
-9 -2 -9 9 1 9 7 17 10 17 5 0 -5 5 -2 10 6 5 8 10 10 10 4 0 -7 7 -14 14 -17
11 -4 13 -1 9 11 -6 15 -5 15 10 3 12 -10 17 -10 17 -2 0 8 6 7 16 -3 20 -21
25 -20 17 2 -6 15 -5 15 10 3 11 -8 17 -9 17 -3 0 6 7 9 15 6 8 -4 12 -11 9
-18 -3 -6 2 -2 10 8 11 14 16 15 16 6 0 -11 3 -11 12 -2 9 9 15 7 25 -6 8 -9
12 -11 8 -4 -5 10 9 18 18 10 1 -2 10 4 19 12 11 11 13 19 6 27 -7 9 -6 15 6
19 9 3 13 10 10 15 -3 5 0 9 6 9 6 0 8 5 5 11 -4 5 1 20 12 31 10 12 12 18 6
14 -7 -4 -13 -3 -13 2 0 6 8 13 17 16 15 6 15 8 3 16 -11 7 -12 10 -2 10 7 0
11 4 7 9 -3 5 2 17 11 25 8 9 13 16 10 16 -3 0 -1 12 5 28 20 50 21 72 3 72
-9 0 -23 -8 -31 -17 -8 -10 -11 -12 -7 -4 4 9 3 12 -4 7 -6 -4 -9 -13 -6 -20
3 -7 -3 -19 -12 -27 -16 -12 -17 -12 -9 1 7 13 6 13 -11 0 -22 -18 -74 -26
-74 -12 0 6 -10 8 -22 4 -16 -4 -19 -2 -13 8 6 10 4 12 -10 7 -11 -5 -22 -1
-31 10 -9 12 -13 14 -14 5 0 -7 -5 -10 -10 -7 -6 4 -8 10 -5 14 2 5 -7 7 -20
5 -14 -1 -31 4 -39 11 -10 11 -16 11 -26 2 -10 -9 -11 -9 -6 1 7 12 0 15 -36
15 -10 0 -15 4 -11 10 4 6 -2 8 -15 5 -12 -4 -20 -3 -17 2 3 4 -2 11 -11 14
-10 4 -13 2 -9 -7 4 -6 1 -5 -7 3 -7 9 -22 15 -33 15 -11 0 -26 4 -32 9 -7 4
-13 5 -13 0 0 -4 -14 5 -31 22 -21 20 -28 23 -23 10 5 -12 -4 -7 -25 13 -19
18 -30 38 -27 46 3 8 0 17 -6 21 -7 5 -8 2 -3 -6 5 -8 4 -11 -3 -6 -7 4 -7 14
3 32 14 27 10 58 -6 48 -5 -3 -9 0 -9 5 0 6 -5 11 -11 11 -5 0 -7 -4 -4 -10z
m305 -406 c0 -8 -19 -13 -24 -6 -3 5 1 9 9 9 8 0 15 -2 15 -3z"/>
<path d="M980 2868 c-20 -7 -22 -11 -10 -18 13 -8 13 -10 1 -10 -12 0 -12 -3
-3 -12 16 -16 16 -41 0 -32 -9 5 -9 2 1 -9 7 -9 9 -17 4 -17 -5 0 -19 -9 -31
-21 -12 -11 -26 -17 -31 -14 -5 3 -12 1 -16 -5 -4 -6 -11 -8 -16 -5 -5 4 -9 1
-9 -5 0 -6 -5 -8 -12 -4 -6 4 -17 -1 -25 -11 -7 -11 -13 -14 -13 -7 0 6 -7 9
-15 6 -8 -4 -13 -9 -10 -13 2 -4 -6 -7 -18 -6 -12 1 -31 -4 -43 -12 -11 -7
-24 -10 -29 -6 -4 5 -5 -1 -1 -11 5 -15 4 -16 -7 -8 -8 7 -18 7 -27 2 -8 -5
-18 -6 -22 -4 -5 3 -11 -1 -14 -10 -3 -8 -12 -12 -20 -9 -8 3 -14 -1 -14 -8 0
-8 -6 -5 -15 7 -15 18 -15 18 -8 0 4 -13 3 -17 -5 -12 -7 4 -12 2 -12 -5 0 -7
-3 -9 -7 -6 -3 4 -17 0 -31 -9 -13 -9 -22 -12 -19 -7 4 5 0 10 -8 10 -8 0 -12
-4 -10 -8 3 -4 -2 -9 -9 -12 -8 -3 -17 -1 -20 6 -2 7 -5 4 -5 -5 -1 -11 -6
-15 -16 -12 -8 4 -15 1 -15 -5 0 -6 -7 -5 -17 4 -10 8 -27 21 -38 30 l-20 15
20 -6 c14 -4 12 0 -8 13 -15 11 -24 23 -20 27 4 4 -1 4 -10 0 -10 -3 -16 -9
-13 -12 3 -2 1 -13 -5 -23 -7 -14 -6 -19 4 -19 7 0 14 -10 14 -22 1 -13 7 -24
13 -26 7 -3 7 -9 -2 -20 -10 -12 -10 -14 0 -8 8 5 12 1 12 -13 0 -11 5 -23 11
-27 8 -4 7 -9 -2 -15 -11 -7 -10 -9 5 -9 13 0 17 -5 13 -19 -3 -11 1 -22 8
-25 7 -2 11 -16 10 -30 -2 -14 1 -26 6 -26 6 0 7 -4 4 -10 -3 -5 1 -10 9 -10
9 0 16 -5 16 -11 0 -6 5 -7 13 -2 22 14 49 14 41 1 -6 -10 -5 -10 7 -2 18 15
71 15 62 1 -4 -6 -1 -7 8 -1 23 14 51 16 43 2 -5 -7 -3 -8 7 -2 19 12 33 12
41 -1 5 -6 8 -5 8 3 0 8 5 10 13 5 16 -10 38 -10 60 0 13 6 17 3 17 -10 0 -15
2 -15 9 -4 13 20 51 21 52 2 0 -10 3 -11 5 -4 3 7 12 9 21 6 11 -4 14 -2 9 5
-5 8 -2 10 8 6 9 -3 13 -11 9 -18 -4 -6 1 -5 10 3 9 7 17 10 17 5 0 -5 5 -2
10 6 8 12 10 9 10 -12 0 -16 -6 -28 -12 -28 -7 0 -24 -12 -37 -25 -12 -14 -27
-22 -32 -19 -5 3 -9 2 -8 -3 4 -21 -2 -31 -18 -29 -10 0 -17 -4 -16 -10 1 -6
-9 -17 -22 -24 -14 -7 -25 -17 -25 -22 0 -4 -5 -8 -11 -8 -6 0 -27 -17 -46
-37 -20 -21 -33 -32 -29 -26 5 9 2 11 -8 7 -9 -3 -13 -10 -10 -16 3 -5 -3 -12
-15 -15 -11 -3 -23 -14 -27 -25 -3 -11 -8 -17 -11 -14 -3 3 -16 -6 -29 -21
-17 -20 -20 -30 -12 -40 5 -7 8 -19 4 -28 -3 -8 -2 -14 2 -14 20 3 23 -3 11
-18 -10 -11 -10 -14 -1 -9 7 4 12 1 12 -8 0 -9 5 -16 11 -16 8 0 8 -4 0 -14
-10 -11 -7 -17 11 -30 15 -11 17 -16 8 -16 -12 0 -13 -2 -1 -9 11 -7 11 -9 0
-14 -10 -4 -9 -6 3 -6 11 -1 16 -8 13 -21 -2 -11 1 -20 7 -20 6 0 8 -11 6 -24
-4 -18 -1 -23 9 -19 8 3 13 2 12 -3 -4 -21 2 -35 11 -29 6 4 7 12 3 18 -4 8
-1 7 9 -1 14 -11 16 -11 14 2 -1 9 -5 19 -9 22 -4 4 -2 13 4 21 9 10 8 13 -1
13 -10 0 -10 3 0 15 6 8 9 19 5 25 -3 5 -1 10 5 10 6 0 22 11 35 25 16 18 25
22 28 13 4 -11 6 -10 6 0 1 7 6 10 11 7 6 -3 10 -2 10 4 0 6 7 8 15 5 8 -4 15
-1 15 6 0 7 7 10 15 6 8 -3 15 -1 15 4 0 5 9 7 20 5 12 -2 23 2 26 10 3 7 14
12 25 10 10 -2 19 -1 19 3 0 4 11 12 25 19 19 8 23 8 18 0 -4 -7 0 -6 10 1 9
8 21 11 27 7 5 -3 13 1 16 9 4 11 11 13 23 7 12 -7 22 -3 39 17 13 15 21 21
17 15 -9 -18 5 -16 28 5 20 16 20 16 13 -2 -7 -19 -6 -19 13 -2 11 10 25 15
30 11 6 -3 11 -1 11 4 0 6 5 11 11 11 5 0 7 -5 3 -11 -4 -8 0 -8 15 0 20 11
26 6 22 -21 0 -4 7 -4 16 -1 11 4 14 3 9 -5 -4 -7 -1 -12 7 -12 8 0 18 -12 22
-27 3 -15 9 -22 13 -16 4 5 15 9 25 7 11 -1 14 2 10 9 -4 7 -8 19 -8 28 0 9
-9 27 -20 40 -11 12 -14 19 -7 15 10 -6 10 -2 0 18 -6 14 -16 26 -22 26 -6 0
-4 5 4 10 10 6 11 10 3 10 -7 0 -13 9 -13 20 0 11 -5 20 -11 20 -8 0 -7 6 2
17 10 11 10 14 2 9 -9 -5 -13 0 -13 14 0 13 -4 19 -11 14 -7 -4 -7 1 1 16 8
15 8 20 1 16 -6 -4 -11 -2 -11 4 0 14 -41 9 -41 -5 -1 -5 -6 -19 -12 -30 -9
-17 -8 -18 4 -8 12 10 15 8 15 -8 0 -10 -3 -19 -7 -19 -4 0 -6 -11 -5 -25 2
-13 -1 -22 -5 -19 -5 3 -9 0 -9 -7 0 -7 -3 -10 -6 -6 -4 3 -13 -1 -21 -9 -9
-8 -22 -13 -29 -10 -8 3 -11 0 -8 -9 4 -10 0 -13 -15 -10 -12 2 -21 -1 -21 -7
0 -5 -7 -8 -15 -4 -8 3 -15 1 -15 -3 0 -5 -7 -12 -16 -15 -10 -4 -13 -2 -9 7
4 6 -1 3 -9 -7 -12 -15 -16 -16 -16 -5 0 12 -2 12 -9 0 -5 -8 -16 -11 -26 -8
-9 4 -14 3 -10 -3 6 -9 -8 -14 -20 -7 -2 1 -11 -7 -20 -18 -9 -11 -14 -14 -10
-7 7 14 -29 12 -42 -3 -5 -4 -1 -5 7 0 8 5 12 4 7 0 -4 -5 -18 -10 -30 -12
-12 -2 -24 -8 -25 -14 -3 -6 -9 -6 -18 2 -9 7 -14 8 -14 1 0 -10 -29 -24 -41
-19 -3 1 -13 -4 -22 -11 -9 -8 -21 -11 -26 -8 -5 4 -14 -1 -19 -10 -6 -11 -11
-13 -16 -5 -4 6 -2 11 4 11 6 0 8 5 4 12 -4 6 -3 8 3 5 6 -4 14 0 17 9 4 9 13
14 22 10 8 -3 13 -2 10 3 -7 11 18 33 27 24 4 -3 7 2 7 11 0 12 5 16 16 12 8
-3 13 -2 10 2 -2 4 -1 14 5 22 7 13 9 13 9 0 1 -12 3 -11 11 3 6 9 15 15 20
11 5 -3 9 -2 8 3 -4 23 2 35 16 29 8 -3 15 0 15 7 0 7 12 21 27 31 14 11 23
13 18 6 -6 -9 -4 -11 4 -6 7 5 10 15 7 23 -3 8 -1 11 4 8 6 -3 13 1 16 9 3 9
10 14 15 11 4 -3 13 4 19 16 7 11 14 18 17 15 4 -3 12 3 20 14 8 11 20 20 26
20 7 0 21 11 31 25 10 14 24 25 30 25 12 0 41 30 64 65 13 20 13 20 7 0 -5
-15 -3 -17 5 -9 9 9 8 21 -5 48 -16 34 -32 41 -47 21 -5 -6 -8 -5 -8 3 0 6 -7
12 -16 12 -9 0 -12 -5 -8 -12 6 -10 4 -10 -7 -2 -8 6 -24 14 -36 16 -17 5 -20
2 -16 -11 5 -13 3 -13 -15 3 -17 14 -22 16 -22 5 0 -11 -2 -11 -10 1 -9 13
-10 13 -10 0 0 -13 -1 -13 -10 0 -5 8 -10 10 -10 5 0 -6 -9 -11 -19 -11 -11 0
-17 4 -15 8 3 4 -2 8 -11 8 -9 0 -14 -4 -11 -8 8 -14 -31 -7 -50 9 -13 10 -16
11 -10 1 7 -11 -2 -13 -43 -8 -32 3 -53 1 -57 -6 -5 -7 -11 -5 -20 6 -8 11
-14 13 -19 7 -4 -8 -12 -8 -26 -1 -13 8 -19 7 -19 0 0 -7 -6 -8 -18 -1 -11 6
-24 6 -36 -1 -15 -8 -17 -8 -10 3 7 12 5 12 -9 0 -13 -10 -17 -10 -17 -1 0 10
-3 10 -14 1 -10 -8 -16 -9 -21 -1 -4 7 -12 7 -26 0 -13 -7 -19 -7 -19 0 0 5 7
10 16 10 8 0 12 5 9 10 -5 9 16 14 52 13 7 -1 10 3 7 8 -3 5 4 9 15 9 12 0 21
4 21 9 0 5 6 9 13 8 35 -1 48 4 41 16 -5 7 0 6 11 -3 15 -12 17 -12 10 -1 -6
11 -4 13 8 8 10 -3 17 -2 17 4 0 6 4 8 9 4 5 -3 12 -1 16 5 4 6 11 8 16 5 5
-4 9 -1 9 6 0 8 5 7 17 -2 9 -8 14 -9 10 -3 -9 15 17 26 40 17 11 -4 14 -3 9
5 -7 12 5 16 32 13 8 -1 20 6 27 16 7 10 17 15 20 11 4 -4 21 0 37 8 16 8 33
12 37 9 5 -3 11 0 13 6 6 19 41 -5 72 -50 26 -37 29 -38 45 -23 13 13 14 19 4
25 -6 4 -9 15 -6 24 4 11 3 14 -6 9 -8 -6 -11 -2 -9 10 2 12 -2 18 -11 16 -12
-3 -12 0 -1 12 9 12 9 16 1 16 -7 0 -10 4 -6 9 3 5 1 12 -5 16 -6 4 -8 11 -5
16 4 5 1 9 -5 9 -6 0 -9 4 -6 8 3 5 -1 21 -9 36 -10 18 -10 24 -2 20 7 -4 5 1
-4 12 -9 10 -20 26 -24 34 -8 13 -7 13 11 0 19 -14 19 -14 0 7 -10 12 -19 33
-20 46 0 14 -4 23 -8 21 -4 -2 -8 4 -10 15 -2 15 -7 17 -28 9z m90 -938 c0 -5
-2 -10 -4 -10 -3 0 -8 5 -11 10 -3 6 -1 10 4 10 6 0 11 -4 11 -10z"/>
</g>
</svg>
